<svg xmlns="http://www.w3.org/2000/svg" xmlns:xlink="http://www.w3.org/1999/xlink" viewBox="0 0 170 175" xmlns:v="https://vecta.io/nano"><path d="M0 0h170v175H0" fill="#fff"/><path d="M54.5 91.5H56v20h-3.5v-20z" fill="#fc0"/><path d="M54.5 71.5H56v20h-3.5v-20z" fill="red"/><path d="M56 51.5v20h-1.5-2v-20z"/><g fill="#181716"><path d="M27.6 22.6c-.3-.2-.7-.3-1.1-.3-.8 0-1.3.4-1.3 1.1s.5.9.9 1.2l1 .6c1 .5 1.6 1 1.6 2.1 0 1.3-.9 2.2-2.5 2.2-1 0-1.8-.4-1.9-.5 0-.3-.1-1.1-.1-1.2 0-.4.1-.6.4-.6.1 0 .2 0 .3.1l.3 1.2c.2.2.7.4 1.2.4.9 0 1.4-.5 1.4-1.2s-.5-1-1.4-1.5l-.7-.4c-.7-.4-1.4-.9-1.4-2 0-1.3 1-2 2.4-2 1 0 1.5.3 1.8.4v1.1c0 .3-.1.6-.4.6h-.2l-.3-1.3z"/><use xlink:href="#B"/><path d="M37.8 24.7h0c.3-.3.7-.8 1.6-.8 1.2 0 2 .9 2 2.5 0 2.1-1.2 3-2.8 3-.3 0-.6 0-.8-.1v1.6l.6.1c.1 0 .2.1.2.1 0 .1-.1.3-.1.3H36v-.1c0-.2.1-.3.3-.4l.4-.1v-6.3H36v-.1c0-.2.1-.3.4-.3l1.5-.1-.1.7zm.1 3.8c.2.1.5.3.9.3 1 0 1.6-.6 1.6-2.2 0-1.3-.6-1.8-1.4-1.8-.5 0-.9.2-1.1.4v3.3zm6.2-3.8h0c.3-.3.7-.8 1.6-.8 1.2 0 2 .9 2 2.5 0 2.1-1.2 3-2.8 3-.3 0-.6 0-.8-.1v1.6l.6.1c.1 0 .2.1.2.1 0 .1-.1.3-.1.3h-2.5v-.1c0-.2.1-.3.3-.4l.4-.1v-6.3l-.8-.1v-.1c0-.2.1-.3.4-.3l1.5-.1v.8zm.1 3.8c.2.1.5.3.9.3 1 0 1.6-.6 1.6-2.2 0-1.3-.6-1.8-1.4-1.8-.5 0-.9.2-1.1.4v3.3z"/><use xlink:href="#C"/><path d="M56.6 24.9h0c.3-.4.7-1 1.4-1 .5 0 .8.2.8.6 0 .2-.1.5-.2.6-.1 0-.4-.2-.7-.2-.6 0-.9.2-1.1.6v3.3l.8.1c.1 0 .2.1.2.1 0 .1-.1.3-.1.3H55v-.1c0-.2.1-.3.3-.4l.4-.1v-4.1l-.8-.1v-.1c0-.2.1-.3.4-.3l1.5-.1-.2.9z"/><path d="M62.5 24.6H61v3.2c0 .5.2.9.7.9.4 0 .8-.2.9-.3.1.1.1.3.1.4s-.4.6-1.4.6-1.4-.6-1.4-1.4v-3.4h-.8v-.1c0-.2.1-.3.3-.4l.6-.1.3-1.5h.7V24h1.6l-.1.6z"/><use xlink:href="#D"/><use xlink:href="#E"/><use xlink:href="#F"/><path d="M88.1 24.6l-1.8 4.8c-.6 1.7-1.4 2.3-2.3 2.3-.5 0-.7-.2-.7-.6 0-.2.1-.4.2-.5.1.1.3.1.5.1.7 0 1.3-.3 1.6-1.2l-2.1-5-.5-.2v-.1c0-.2.1-.3.3-.3h2.1c.1 0 .1 0 .1.1s-.1.2-.1.3l-.6.2 1.3 3.6h0l1.3-3.6-.8-.2v-.1c0-.2.1-.3.3-.3h1.8c.1 0 .1 0 .1.1s-.1.2-.1.3l-.6.3zm2 .6a.68.68 0 0 1-.7-.7.7.7 0 1 1 1.4 0c0 .5-.3.7-.7.7zm0 4.3a.68.68 0 0 1-.7-.7.7.7 0 1 1 1.4 0 .68.68 0 0 1-.7.7z"/><use xlink:href="#C" x="-24.7" y="112.4"/><use xlink:href="#G"/><path d="M42.4 137h-1.5v3.2c0 .5.2.9.7.9.4 0 .8-.2.9-.3.1.1.1.3.1.4s-.4.6-1.4.6-1.4-.6-1.4-1.4V137H39v-.1c0-.2.1-.3.3-.4l.5-.1.3-1.5h.8v1.5h1.6l-.1.6zm2.5.1h0c.2-.3.8-.8 1.7-.8 1.1 0 1.7.6 1.7 1.9v2.9l.6.1c.1 0 .2.1.2.1 0 .1-.1.3-.1.3h-2.5v-.1c0-.2.1-.3.3-.4l.4-.1v-2.8c0-.9-.5-1.2-1.1-1.2-.7 0-1 .3-1.3.5v3.5l.6.1c.1 0 .2.1.2.1 0 .1-.1.3-.1.3H43v-.1c0-.2.1-.3.3-.4l.4-.1v-6.7l-.8-.1v-.1c0-.2.1-.3.4-.3l1.5-.1v3.5z"/><use xlink:href="#H"/><use xlink:href="#F" x="-19.9" y="112.4"/><use xlink:href="#I"/><use xlink:href="#J"/><path d="M75.1 141.1l.6.1c.1 0 .2.1.2.1 0 .1-.1.3-.1.3h-2.5v-.1c0-.2.1-.3.3-.4l.4-.1v-4.1l-.8-.1v-.1c0-.2.1-.3.4-.3l1.5-.1v4.8zm-.6-5.8a.68.68 0 1 1 0-1.4.68.68 0 0 1 .7.7c.1.4-.3.7-.7.7z"/><use xlink:href="#J" x="7.8"/><use xlink:href="#C" x="34.8" y="112.4"/><path d="M92.8 137h-1.3v4.1l.7.1c.1 0 .2.1.2.1 0 .1-.1.3-.1.3h-2.6v-.1c0-.2.1-.3.3-.4l.4-.1v-4h-.8v-.1c0-.2.1-.3.3-.4l.5-.1v-.1c0-1.8 1.1-2.6 2-2.6.5 0 .8.2.8.6 0 .3-.2.4-.3.5-.1-.1-.4-.3-.7-.3-.5 0-.6.3-.6.9v1h1.5l-.3.6zm7 3.6c0 .4.2.6.4.6.3 0 .4-.1.4-.2.1.1.1.2.1.3s-.3.6-1 .6c-.5 0-.8-.2-.9-.8h0c-.1.2-.5.8-1.4.8-.8 0-1.4-.6-1.4-1.4 0-1.2 1.3-1.6 2.5-1.6h.3v-.5c0-1-.3-1.4-.9-1.4-.3 0-.5.1-.6.1-.1.2-.2.6-.2 1h-.3c-.4 0-.6-.2-.6-.5 0-.7.9-1.2 1.9-1.2 1.2 0 1.8.7 1.8 1.9v2.3zm-1.4-1.2c-.9 0-1.4.4-1.4.9s.3.8.7.8.8-.3.9-.5v-1.3l-.2.1z"/><use xlink:href="#E" x="35" y="112.4"/><use xlink:href="#D" x="46.6" y="112.4"/><path d="M117.8 136.9c-.7 0-1.4.5-1.4 2 0 1.4.5 2.2 1.6 2.2.7 0 1.1-.4 1.3-.5a.76.76 0 0 1 .2.4c0 .3-.6.9-1.8.9-1.4 0-2.4-.9-2.4-2.7 0-1.9 1.2-2.9 2.7-2.9 1.2 0 1.5.6 1.5.9s-.1.6-.6.7c-.1-.4-.4-1-1.1-1zm4.3 4.2l.6.1c.1 0 .2.1.2.1 0 .1-.1.3-.1.3h-2.5v-.1c0-.2.1-.3.3-.4l.4-.1v-4.1l-.8-.1v-.1c0-.2.1-.3.4-.3l1.5-.1v4.8zm-.6-5.8a.7.7 0 1 1 0-1.4.7.7 0 1 1 0 1.4z"/><use xlink:href="#J" x="54.8"/><path d="M129.8 141.1l.6.1c.1 0 .2.1.2.1 0 .1-.1.3-.1.3H128v-.1c0-.2.1-.3.3-.4l.4-.1v-4.1l-.8-.1v-.1c0-.2.1-.3.4-.3l1.5-.1v4.8zm-.5-5.8a.68.68 0 1 1 0-1.4.68.68 0 1 1 0 1.4z"/><use xlink:href="#C" x="82.6" y="112.4"/><use xlink:href="#G" x="107.3"/><use xlink:href="#F" x="-53.3" y="123.4"/><path d="M34.8 148l-1.8 4.8c-.6 1.7-1.4 2.3-2.3 2.3-.5 0-.7-.2-.7-.6 0-.2.1-.4.2-.5.1.1.3.1.5.1.7 0 1.3-.3 1.6-1.2l-2.1-5-.5-.2v-.1c0-.2.1-.3.3-.3h2c.1 0 .1 0 .1.1s-.1.2-.1.3l-.6.2 1.3 3.6h0L34 148l-.8-.2v-.1c0-.2.1-.3.3-.3h1.8c.1 0 .1 0 .1.1s-.1.2-.1.3l-.5.2z"/><use xlink:href="#K"/><path d="M43.7 148.1h0c.2-.3.8-.8 1.7-.8 1.1 0 1.7.6 1.7 1.9v2.9l.6.1c.1 0 .2.1.2.1 0 .1-.1.3-.1.3h-2.5v-.1c0-.2.1-.3.3-.4l.4-.1v-2.8c0-.9-.5-1.2-1.1-1.2-.7 0-1 .3-1.3.5v3.5l.6.1c.1 0 .2.1.2.1 0 .1-.1.3-.1.3h-2.5v-.1c0-.2.1-.3.3-.4l.4-.1v-6.7l-.8-.1v-.1c0-.2.1-.3.4-.3l1.5-.1v3.5z"/><use xlink:href="#H" x="-1.2" y="11"/><path d="M61.6 146c-.2-.2-.7-.3-1.3-.3-1.3 0-2.7.9-2.7 3.2 0 2.2 1 3.3 2.5 3.3.5 0 .9-.1 1.3-.2v-2.2l-.7-.2c-.1 0-.2-.1-.2-.1 0-.1.1-.2.1-.3h2.5v.1c0 .2-.1.3-.4.4l-.3.1v2.3c-.3.3-1.1.9-2.7.9-1.9 0-3.5-1.2-3.5-3.9 0-2.9 2.1-4 3.9-4 1.2 0 1.7.3 2.1.5 0 .3.1 1 .1 1.1 0 .3-.1.6-.4.6h-.3V146z"/><use xlink:href="#D" x="0.7" y="123.4"/><path d="M71 148.3h0c.3-.4.7-1 1.4-1 .5 0 .8.2.8.6 0 .2-.1.5-.2.6-.1 0-.4-.2-.7-.2-.6 0-.9.2-1.1.6v3.3l.8.1c.1 0 .2.1.2.1 0 .1-.1.3-.1.3h-2.7v-.1c0-.2.1-.3.3-.4l.4-.1V148l-.8-.1v-.1c0-.2.1-.3.4-.3l1.5-.1-.2.9zm11.2 3.8l.6.1c.1 0 .2.1.2.1 0 .1-.1.3-.1.3h-2.5v-.1c0-.2.1-.3.3-.4l.4-.1v-2.8c0-1-.5-1.2-1-1.2-.7 0-1 .3-1.3.5 0 .2.1.4.1.6v2.9l.6.1c.1 0 .2.1.2.1 0 .1-.1.3-.1.3H77v-.1c0-.2.1-.3.3-.4l.4-.1v-2.8c0-1-.5-1.2-1-1.2-.6 0-1 .3-1.2.5v3.5l.6.1c.1 0 .2.1.2.1 0 .1-.1.3-.1.3h-2.5v-.1c0-.2.1-.3.3-.4l.4-.1v-4.1l-.8-.1v-.1c0-.2.1-.3.4-.3l1.5-.1-.1.7h0c.2-.3.8-.8 1.7-.8.7 0 1.2.3 1.4.9.3-.3.9-.9 1.9-.9 1.1 0 1.7.7 1.7 1.9v3.2z"/><use xlink:href="#I" x="20.1" y="11"/><use xlink:href="#G" x="58.8" y="11"/><path d="M102.1 148.8h0c1.1.2 1.8.8 1.8 1.8 0 1.2-1 2.1-3 2.1h-2.8v-.1c0-.2.1-.3.4-.4l.5-.1v-6.4l-.7-.2c-.1 0-.2-.1-.2-.1 0-.1.1-.2.1-.3h2.6c2 0 2.9.7 2.9 1.9 0 1.1-.6 1.6-1.6 1.8zm-1.4-3h-.6v2.8h.6c1.3 0 1.8-.6 1.8-1.4 0-.9-.6-1.4-1.8-1.4zm.1 3.4h-.7v2.8h.7c1.3 0 1.9-.6 1.9-1.5-.1-.7-.7-1.3-1.9-1.3z"/><use xlink:href="#B" x="75.2" y="123.4"/><use xlink:href="#G" x="81.2" y="11"/><use xlink:href="#E" x="49.4" y="123.4"/><use xlink:href="#H" x="74.6" y="11"/><use xlink:href="#J" x="60.8" y="11"/><use xlink:href="#K" x="96.1"/><path d="M141.9 151.6c0 .4.2.6.4.6.3 0 .4-.1.4-.2.1.1.1.2.1.3s-.3.6-1 .6c-.5 0-.8-.2-.9-.8h0c-.1.2-.5.8-1.4.8-.8 0-1.4-.6-1.4-1.4 0-1.2 1.3-1.6 2.5-1.6h.3v-.5c0-1-.3-1.4-.9-1.4-.3 0-.5.1-.6.1-.1.2-.2.6-.2 1h-.3c-.4 0-.6-.2-.6-.5 0-.7.9-1.2 1.9-1.2 1.2 0 1.8.7 1.8 1.9v2.3zm-1.3-1.2c-.9 0-1.4.4-1.4.9s.3.8.7.8.8-.3.9-.5v-1.3l-.2.1zm7.7-2.4h-.9a1.69 1.69 0 0 1 .3 1c0 1.2-1 1.8-2.2 1.8-.2 0-.4 0-.5-.1-.2.1-.3.2-.3.5s.2.4.5.4h1.3c1 0 1.6.5 1.6 1.3 0 1.1-1.1 2.1-2.9 2.1-1.4 0-2-.5-2-1.3s.6-1.1 1-1.3h0c-.3-.2-.5-.4-.5-.8 0-.6.6-.9.8-1h0c-.6-.3-1-.8-1-1.6 0-1.2 1-1.8 2.1-1.8.3 0 .6 0 .9.1h1.9l-.1.7zm-3.2 4.7h-.4c-.3.2-.5.4-.5.8 0 .6.4.9 1.2.9 1.1 0 1.7-.5 1.7-1.1 0-.5-.3-.6-.8-.6h-1.2zm-.4-3.6c0 .9.4 1.2 1 1.2s1-.3 1-1.2c0-.8-.4-1.2-1-1.2s-1 .3-1 1.2zM63.5 59.7v-8.2h4l-.1.8h-2.9v3h2.7v.8h-2.7v3.5h-1zm8.7-3.8v.6.5h-2.9c0 .7.2 1.2.4 1.5.3.3.6.5 1.1.5.2 0 .3 0 .5-.1s.3-.1.4-.1c.1-.1.2-.1.2-.2l.1-.1.4.7-.2.2c-.1.1-.2.2-.3.2-.1.1-.3.1-.5.2s-.4.1-.7.1c-.4 0-.7-.1-1-.2s-.5-.3-.7-.6-.4-.6-.5-1-.2-.8-.2-1.4c0-.5.1-.9.2-1.3s.3-.7.5-.9.4-.4.7-.5.5-.2.8-.2c.5 0 1 .2 1.3.5.3.4.4.9.4 1.6zm-1.8-1.3c-.3 0-.6.1-.8.4s-.3.7-.4 1.2h2.1V56v-.2c0-.4-.1-.7-.2-.9-.2-.2-.4-.3-.7-.3zm2.8 2.3c0-.6.1-1.1.2-1.5.2-.4.3-.7.6-.9.2-.2.5-.4.8-.5s.6-.1.9-.1h.5c.1 0 .2.1.3.1v-2.7l1-.1v8.5h-.9v-.6h0s-.1.1-.1.2c-.1.1-.2.2-.3.2-.1.1-.2.2-.4.2-.2.1-.4.1-.6.1-.3 0-.5-.1-.8-.2-.2-.1-.5-.3-.6-.5-.2-.2-.3-.5-.4-.9s-.2-.7-.2-1.3zm2.3 2.1c.2 0 .3 0 .4-.1.1 0 .2-.1.3-.1.1-.1.2-.1.2-.2.1-.1.1-.1.1-.2v-3.5c-.1-.1-.2-.1-.3-.1s-.3-.1-.4-.1c-.2 0-.4 0-.6.1s-.4.2-.5.4-.3.4-.3.7c-.1.3-.1.6-.1 1s0 .7.1 1 .2.5.3.6c.1.2.3.3.4.4.1 0 .2.1.4.1zm7.2-3.1v.6.5h-2.9c0 .7.2 1.2.4 1.5.3.3.6.5 1.1.5.2 0 .3 0 .5-.1.1 0 .3-.1.4-.1.1-.1.2-.1.2-.2l.1-.1.4.7-.2.2c-.1.1-.2.2-.3.2-.1.1-.3.1-.5.2s-.4.1-.7.1c-.4 0-.7-.1-1-.2s-.5-.3-.7-.6-.4-.6-.5-1-.2-.8-.2-1.4c0-.5.1-.9.2-1.3s.3-.7.5-.9.4-.4.7-.5.5-.2.8-.2c.5 0 1 .2 1.3.5.2.4.4.9.4 1.6zm-1.8-1.3c-.3 0-.6.1-.8.4s-.3.7-.4 1.2h2.1V56v-.2c0-.4-.1-.7-.2-.9-.2-.2-.4-.3-.7-.3zm5.6.2s-.1 0-.2-.1-.2 0-.3 0c-.3 0-.5.1-.7.2-.2.2-.3.3-.4.5v4.2h-1V54h.9v.8h0c0-.1.1-.2.2-.3s.1-.2.2-.3.2-.1.3-.2c.1 0 .3-.1.5-.1h.3c.1 0 .1 0 .2.1v.8zm.5 3.4c0-.3.1-.6.2-.8s.3-.4.5-.5.5-.2.8-.3.6-.1.9-.1h.3V56c0-.5-.1-.8-.3-1s-.4-.3-.7-.3-.5.1-.7.2-.3.2-.5.3l-.4-.6.2-.2c.1-.1.2-.2.4-.2s.3-.1.5-.2.4-.1.6-.1c.6 0 1 .2 1.3.5s.5.8.5 1.6v2.6.7.5h-.9v-.6h0c0 .1-.1.2-.1.2-.1.1-.1.2-.2.2-.1.1-.2.1-.3.2s-.3.1-.5.1-.4 0-.6-.1-.3-.2-.5-.3c-.1-.1-.2-.3-.3-.5-.1-.3-.2-.5-.2-.8zm1.8.8c.1 0 .3 0 .4-.1.1 0 .2-.1.3-.1l.2-.2c.1-.1.1-.1.1-.2v-1.3h-.3c-.5 0-.8.1-1 .2a1.13 1.13 0 0 0-.5.8c0 .3.1.5.2.7.1.1.3.2.6.2zm4.3-.6c0 .2 0 .4.1.5s.2.1.4.1h.2.1l.1.7s-.1.1-.3.1-.3.1-.5.1c-.3 0-.6-.1-.8-.3s-.3-.6-.3-1.1v-7.2l1-.1v7.2zm11.3-6.9v8.2h-1v-3.9-.7-.7-.5-.4h0c0 .2-.1.5-.2.9s-.3.8-.4 1.3l-1.4 4h-.8l-1.4-4c-.2-.5-.3-.9-.4-1.3s-.2-.7-.2-.9h0v.4.5.7.7 3.9h-1v-8.2h1.2l1.9 5.7c.1.3.2.5.2.8.1.2.1.5.1.6h0c0-.2 0-.4.1-.6s.1-.5.2-.8l1.9-5.7h1.2zm2.6 8.2h-1V54h1v5.7zm-.4-7.1c-.2 0-.4-.1-.5-.2s-.2-.3-.2-.5.1-.4.2-.5.3-.2.5-.2.3.1.5.2c.1.1.2.3.2.5s-.1.4-.2.5c-.2.1-.4.2-.5.2zm5 7.1V56c0-.5-.1-.8-.2-1-.2-.2-.4-.3-.7-.3s-.5.1-.7.2-.3.3-.5.4v4.4h-1V54h.9v.6h0l.2-.2.3-.3c.1-.1.3-.2.5-.2.2-.1.4-.1.6-.1.3 0 .5 0 .7.1s.4.2.5.4.3.4.3.6c.1.3.1.6.1 1v3.7h-1zm3.4 0h-1V54h1v5.7zm-.5-7.1c-.2 0-.4-.1-.5-.2s-.2-.3-.2-.5.1-.4.2-.5.3-.2.5-.2.3.1.5.2c.1.1.2.3.2.5s-.1.4-.2.5-.3.2-.5.2zm4.4 2.5l-.3-.3c-.2-.1-.4-.2-.7-.2s-.4.1-.6.2-.2.3-.2.4c0 .2.1.4.2.5s.3.3.6.4l.4.2c.4.2.7.5.9.7a1.69 1.69 0 0 1 .3 1c0 .5-.2.8-.5 1.1s-.8.5-1.4.5c-.2 0-.4 0-.6-.1s-.3-.1-.5-.2c-.1-.1-.2-.1-.3-.2s-.2-.1-.2-.2l.5-.8.2.2.2.2c.1.1.2.1.3.1s.3.1.4.1c.3 0 .5-.1.7-.2s.2-.3.2-.5c0-.1 0-.3-.1-.4 0-.1-.1-.2-.2-.3s-.2-.2-.3-.2c-.1-.1-.2-.2-.4-.2l-.4-.2c-.4-.2-.6-.5-.8-.7a1.69 1.69 0 0 1-.3-1c0-.2 0-.4.1-.6s.2-.3.4-.5c.2-.1.3-.2.5-.3s.4-.1.6-.1.4 0 .6.1c.2 0 .3.1.4.2s.2.1.3.2l.2.2-.2.9zm4.2-.3h-1.2V58c0 .4.1.7.2.8s.3.2.5.2c.1 0 .3 0 .4-.1.1 0 .2-.1.2-.1l.1.8s-.1.1-.3.1c-.2.1-.4.1-.6.1-.5 0-.9-.1-1.1-.4s-.4-.7-.4-1.4v-3.3h-.7v-.6l.7-.1.1-1.6h.9V54h1.4l-.2.8zm3.6 0s-.1 0-.2-.1-.2 0-.3 0c-.3 0-.5.1-.7.2-.2.2-.3.3-.4.5v4.2h-1V54h.9v.8h0c0-.1.1-.2.2-.3s.1-.2.2-.3.2-.1.3-.2c.1 0 .3-.1.5-.1h.3c.1 0 .1 0 .2.1v.8zm4.7-.8l-1.8 6a4.77 4.77 0 0 1-.8 1.6c-.3.4-.7.5-1.3.5h-.3c-.1 0-.1 0-.2-.1v-.8s.1 0 .2.1h.2c.3 0 .6-.1.8-.3s.3-.5.5-1l.1-.3L127 54h1l.9 3.2c.1.3.2.6.2.9.1.3.1.5.1.8h0c0-.2.1-.5.1-.7.1-.3.1-.6.2-.9l.8-3.2h1.1zM65.7 66.8h-1.2v4.9h-1v-4.9h-.7v-.6l.7-.1V65c0-.3 0-.6.1-.8s.2-.4.3-.5.3-.2.5-.3.4-.1.6-.1.4 0 .5.1.2.1.3.1l-.2.8s-.1-.1-.2-.1-.2-.1-.3-.1c-.2 0-.4.1-.5.2s-.2.4-.2.8v1h1.3v.7zm.6 2c0-.5.1-1 .2-1.4s.3-.7.5-.9a3.04 3.04 0 0 1 .7-.5c.3-.1.6-.2.9-.2s.6.1.9.2.5.3.7.5.4.6.5.9c.1.4.2.8.2 1.4 0 .5-.1 1-.2 1.4s-.3.7-.5.9a3.04 3.04 0 0 1-.7.5 2.39 2.39 0 0 1-.9.2c-.3 0-.6-.1-.9-.2s-.5-.3-.7-.5-.4-.6-.5-.9c-.1-.4-.2-.8-.2-1.4zm3.5 0c0-.8-.1-1.3-.3-1.7-.2-.3-.5-.5-.9-.5s-.7.2-.9.5-.3.9-.3 1.7.1 1.3.3 1.6.5.5.9.5.7-.2.9-.5c.2-.2.3-.8.3-1.6zm4.7-2s-.1 0-.2-.1H74c-.3 0-.5.1-.7.2-.2.2-.3.3-.4.5v4.2h-1V66h.9v.8h0c0-.1.1-.2.2-.3s.1-.2.2-.3.2-.1.3-.2c.1 0 .3-.1.5-.1h.3c.1 0 .1 0 .2.1v.8zm7.4-2.5H79v2.8h2.7v.9H79v2.9h3.2l-.1.9h-4.2v-8.2h4v.7zm4.6 2.8l-.1-.1c-.1 0-.1-.1-.2-.1s-.2-.1-.3-.1-.2-.1-.4-.1-.4 0-.6.1-.3.2-.5.4l-.3.6c-.1.3-.1.6-.1 1s0 .8.1 1.1.2.5.3.7.3.3.4.4c.2.1.4.1.6.1.3 0 .5-.1.7-.2s.3-.2.3-.2l.4.7-.2.2c-.1.1-.2.1-.3.2s-.3.1-.4.2c-.2 0-.4.1-.6.1-.3 0-.6-.1-.9-.2s-.5-.3-.7-.5-.4-.5-.5-.9a7.93 7.93 0 0 1-.2-1.7c0-.5.1-1 .2-1.4s.3-.7.6-.9c.2-.2.5-.4.8-.5s.6-.2.9-.2c.2 0 .4 0 .6.1.2 0 .3.1.4.1.1.1.2.1.3.2l.2.2-.5.7zm1 1.7c0-.5.1-1 .2-1.4s.3-.7.5-.9a3.04 3.04 0 0 1 .7-.5c.3-.1.6-.2.9-.2s.6.1.9.2.5.3.7.5.4.6.5.9c.1.4.2.8.2 1.4 0 .5-.1 1-.2 1.4s-.3.7-.5.9a3.04 3.04 0 0 1-.7.5c-.3.1-.6.2-.9.2s-.6-.1-.9-.2-.5-.3-.7-.5-.4-.6-.5-.9c-.1-.4-.2-.8-.2-1.4zm3.5 0c0-.8-.1-1.3-.3-1.7-.2-.3-.5-.5-.9-.5s-.7.2-.9.5-.3.9-.3 1.7.1 1.3.3 1.6.5.5.9.5.7-.2.9-.5c.2-.2.3-.8.3-1.6zm5.4 2.9V68c0-.5-.1-.8-.2-1-.2-.2-.4-.3-.7-.3s-.5.1-.7.2-.3.3-.5.4v4.4h-1V66h.9v.6h0l.2-.2.3-.3c.1-.1.3-.2.5-.2.2-.1.4-.1.6-.1.3 0 .5 0 .7.1s.4.2.5.4.3.4.3.6c.1.3.1.6.1 1v3.7h-1zm2.1-2.9c0-.5.1-1 .2-1.4s.3-.7.5-.9a3.04 3.04 0 0 1 .7-.5c.3-.1.6-.2.9-.2s.6.1.9.2.5.3.7.5.4.6.5.9c.1.4.2.8.2 1.4 0 .5-.1 1-.2 1.4s-.3.7-.5.9a3.04 3.04 0 0 1-.7.5c-.3.1-.6.2-.9.2s-.6-.1-.9-.2-.5-.3-.7-.5-.4-.6-.5-.9c-.1-.4-.2-.8-.2-1.4zm3.5 0c0-.8-.1-1.3-.3-1.7-.2-.3-.5-.5-.9-.5s-.7.2-.9.5-.3.9-.3 1.7.1 1.3.3 1.6.5.5.9.5.7-.2.9-.5c.2-.2.3-.8.3-1.6zm5.2 2.9V68c0-.5-.1-.8-.2-1s-.4-.3-.7-.3c-.2 0-.3 0-.4.1-.1 0-.2.1-.3.1-.1.1-.2.1-.2.2l-.2.2v4.4h-1V66h.9v.6h0c0-.1.1-.1.2-.2l.3-.3a.76.76 0 0 1 .4-.2c.2-.1.3-.1.5-.1.7 0 1.1.3 1.4.8.1-.1.1-.2.2-.3s.2-.2.3-.2c.1-.1.3-.1.4-.2s.3-.1.5-.1c1.2 0 1.7.7 1.7 2v3.8h-1V68c0-.5-.1-.8-.2-1-.2-.2-.4-.3-.7-.3s-.5.1-.7.2-.3.3-.4.4v.3.3 3.8h-.8zm6.4 0h-1V66h1v5.7zm-.5-7.1c-.2 0-.4-.1-.5-.2s-.2-.3-.2-.5.1-.4.2-.5.3-.2.5-.2.3.1.5.2c.1.1.2.3.2.5s-.1.4-.2.5-.3.2-.5.2zm5.2 2.5l-.1-.1c-.1 0-.1-.1-.2-.1s-.2-.1-.3-.1-.2-.1-.4-.1-.4 0-.6.1-.3.2-.5.4l-.3.6c-.1.3-.1.6-.1 1s0 .8.1 1.1.2.5.3.7.3.3.4.4c.2.1.4.1.6.1.3 0 .5-.1.7-.2s.3-.2.3-.2l.4.7-.2.2c-.1.1-.2.1-.3.2s-.3.1-.4.2c-.2 0-.4.1-.6.1-.3 0-.6-.1-.9-.2s-.5-.3-.7-.5-.4-.5-.5-.9-.2-.9-.2-1.4.1-1 .2-1.4.3-.7.6-.9c.2-.2.5-.4.8-.5s.6-.2.9-.2c.2 0 .4 0 .6.1.2 0 .3.1.4.1.1.1.2.1.3.2l.2.2-.5.4zm9.2 4.6h-1.1l-.7-2.6h-2.5l-.7 2.6h-1l2.7-8.2h.8l2.5 8.2zm-2.1-3.4l-.6-2.2c-.1-.3-.2-.6-.2-.9-.1-.3-.1-.5-.1-.7h0c0 .2 0 .4-.1.7s-.1.5-.2.9l-.7 2.3h1.9zm5.3-1.5h-1.2v4.9h-1v-4.9h-.7v-.6l.7-.1V65c0-.3 0-.6.1-.8s.2-.4.3-.5.3-.2.5-.3.4-.1.6-.1.4 0 .5.1.2.1.3.1l-.2.8s-.1-.1-.2-.1-.2-.1-.3-.1c-.2 0-.4.1-.5.2s-.2.4-.2.8v1h1.3v.7zm3.3 0h-1.2v4.9h-1v-4.9h-.7v-.6l.7-.1V65c0-.3 0-.6.1-.8s.2-.4.3-.5.3-.2.5-.3.4-.1.6-.1.4 0 .5.1.2.1.3.1l-.2.8s-.1-.1-.2-.1-.2-.1-.3-.1c-.2 0-.4.1-.5.2s-.2.4-.2.8v1h1.3v.7zm.6 3.4c0-.3.1-.6.2-.8s.3-.4.5-.5.5-.2.8-.3.6-.1.9-.1h.3V68c0-.5-.1-.8-.3-1s-.4-.3-.7-.3-.5.1-.7.2-.3.2-.5.3l-.4-.6.2-.2c.1-.1.2-.2.4-.2.1-.1.3-.1.5-.2.2 0 .4-.1.6-.1.6 0 1 .2 1.3.5s.5.8.5 1.6v2.6.7.5h-.9v-.6h0c0 .1-.1.2-.1.2-.1.1-.1.2-.2.2-.1.1-.2.1-.3.2s-.3.1-.5.1-.4 0-.6-.1-.3-.2-.5-.3c-.1-.1-.2-.3-.3-.5-.2-.3-.2-.5-.2-.8zm1.7.8c.1 0 .3 0 .4-.1.1 0 .2-.1.3-.1l.2-.2c.1-.1.1-.1.1-.2v-1.3h-.3c-.5 0-.8.1-1 .2s-.4.4-.4.7.1.5.2.7a.55.55 0 0 0 .5.3zm4.3.7h-1V66h1v5.7zm-.4-7.1c-.2 0-.4-.1-.5-.2s-.2-.3-.2-.5.1-.4.2-.5.3-.2.5-.2.3.1.5.2c.1.1.2.3.2.5s-.1.4-.2.5c-.2.1-.3.2-.5.2zm4.4 2.2s-.1 0-.2-.1h-.3c-.3 0-.5.1-.7.2-.2.2-.3.3-.4.5v4.2h-1V66h.9v.8h0c0-.1.1-.2.2-.3s.1-.2.2-.3.2-.1.3-.2c.1 0 .3-.1.5-.1h.3c.1 0 .1 0 .2.1v.8zm3.4.3l-.3-.3c-.2-.1-.4-.2-.7-.2s-.4.1-.6.2a.76.76 0 0 0-.2.4c0 .2.1.4.2.5s.3.3.6.4l.4.2c.4.2.7.5.9.7a1.69 1.69 0 0 1 .3 1c0 .5-.2.8-.5 1.1s-.8.5-1.4.5c-.2 0-.4 0-.6-.1s-.3-.1-.5-.2c-.1-.1-.2-.1-.3-.2s-.2-.1-.2-.2l.5-.8.2.2.2.2c.1.1.2.1.3.1s.3.1.4.1c.3 0 .5-.1.7-.2s.2-.3.2-.5c0-.1 0-.3-.1-.4 0-.1-.1-.2-.2-.3s-.2-.2-.3-.2c-.1-.1-.2-.2-.4-.2l-.4-.2c-.4-.2-.6-.5-.8-.7a1.69 1.69 0 0 1-.3-1c0-.2 0-.4.1-.6s.2-.3.4-.5c.2-.1.3-.2.5-.3s.4-.1.6-.1.4 0 .6.1c.2 0 .3.1.4.2s.2.1.3.2l.2.2-.2.9zM63 82.2c0-.3.1-.6.2-.8s.3-.4.5-.5.5-.2.8-.3.6-.1.9-.1h.3V80c0-.5-.1-.8-.3-1s-.4-.3-.7-.3-.5.1-.7.2-.3.2-.5.3l-.4-.6.2-.2c.1-.1.2-.2.4-.2.1-.1.3-.1.5-.2.2 0 .4-.1.6-.1.6 0 1 .2 1.3.5s.5.8.5 1.6v2.6.7.5h-.9v-.6h0c0 .1-.1.2-.1.2-.1.1-.1.2-.2.2-.1.1-.2.1-.3.2s-.3.1-.5.1-.4 0-.6-.1-.3-.2-.5-.3c-.1-.1-.2-.3-.3-.5-.2-.3-.2-.5-.2-.8zm1.7.8c.1 0 .3 0 .4-.1.1 0 .2-.1.3-.1l.2-.2c.1-.1.1-.1.1-.2v-1.3h-.3c-.5 0-.8.1-1 .2s-.4.4-.4.7.1.5.2.7a.55.55 0 0 0 .5.3zm6.5.7V80c0-.5-.1-.8-.2-1-.2-.2-.4-.3-.7-.3s-.5.1-.7.2-.3.3-.5.4v4.4h-1V78h.9v.6h0l.2-.2.3-.3c.1-.1.3-.2.5-.2s.4-.1.6-.1c.3 0 .5 0 .7.1s.4.2.5.4.3.4.3.6c.1.3.1.6.1 1v3.7h-1zm2.1-2.8c0-.6.1-1.1.2-1.5.2-.4.3-.7.6-.9.2-.2.5-.4.8-.5s.6-.1.9-.1h.5c.1 0 .2.1.3.1v-2.7l1-.1v8.5h-.9v-.6h0s-.1.1-.1.2c-.1.1-.2.2-.3.2-.1.1-.2.2-.4.2-.2.1-.4.1-.6.1-.3 0-.5-.1-.8-.2-.2-.1-.5-.3-.6-.5-.2-.2-.3-.5-.4-.9-.1-.3-.2-.7-.2-1.3zm2.3 2.1c.2 0 .3 0 .4-.1.1 0 .2-.1.3-.1.1-.1.2-.1.2-.2.1-.1.1-.1.1-.2v-3.5c-.1-.1-.2-.1-.3-.1s-.3-.1-.4-.1c-.2 0-.4 0-.6.1s-.4.2-.5.4-.3.4-.3.7c-.1.3-.1.6-.1 1s0 .7.1 1 .2.5.3.6c.1.2.3.3.4.4.1 0 .2.1.4.1zm10.2-6.7h-2.9v2.8h2.7v.9h-2.7v2.9h3.2l-.1.8h-4.2v-8.2h4v.8zm4.6 7.4V80c0-.5-.1-.8-.2-1-.2-.2-.4-.3-.7-.3s-.5.1-.7.2-.3.3-.5.4v4.4h-1V78h.9v.6h0l.2-.2.3-.3c.1-.1.3-.2.5-.2s.4-.1.6-.1c.3 0 .5 0 .7.1s.4.2.5.4.3.4.3.6c.1.3.1.6.1 1v3.7h-1zm6.1-3.8v.6.5h-2.9c0 .7.2 1.2.4 1.5.3.3.6.5 1.1.5.2 0 .3 0 .5-.1.1 0 .3-.1.4-.1.1-.1.2-.1.2-.2l.1-.1.4.7-.2.2c-.1.1-.2.2-.3.2-.1.1-.3.1-.5.2s-.4.1-.7.1c-.4 0-.7-.1-1-.2s-.5-.3-.7-.6-.4-.6-.5-1-.2-.8-.2-1.4c0-.5.1-.9.2-1.3s.3-.7.5-.9.4-.4.7-.5.5-.2.8-.2c.5 0 1 .2 1.3.5s.4.9.4 1.6zm-1.9-1.3c-.3 0-.6.1-.8.4s-.3.7-.4 1.2h2.1V80v-.2c0-.4-.1-.7-.2-.9s-.4-.3-.7-.3zm5.6.2s-.1 0-.2-.1h-.3c-.3 0-.5.1-.7.2-.2.2-.3.3-.4.5v4.2h-1V78h.9v.8h0c0-.1.1-.2.2-.3s.1-.2.2-.3.2-.1.3-.2c.1 0 .3-.1.5-.1h.3c.1 0 .1 0 .2.1v.8zm5-.1h-.7a1.69 1.69 0 0 1 .3 1c0 .3 0 .6-.1.8s-.2.4-.4.6-.4.3-.6.4-.5.1-.8.1h-.2-.2c-.1 0-.2.1-.3.2s-.2.2-.2.3 0 .2.1.3.2.1.4.1h.7c.3 0 .5 0 .7.1s.4.1.6.3c.2.1.3.3.4.5s.1.4.1.7-.1.6-.2.8c-.1.3-.3.5-.6.7-.2.2-.5.3-.9.4-.3.1-.7.2-1.1.2-.6 0-1.1-.1-1.4-.4s-.5-.6-.5-1.1c0-.2 0-.4.1-.6s.2-.3.3-.4l.3-.3c.1-.1.2-.1.3-.2h0c-.2-.2-.4-.4-.4-.8 0-.2 0-.3.1-.4s.1-.2.2-.3.2-.1.2-.2c.1 0 .1-.1.2-.1h0c-.3-.1-.5-.3-.7-.6s-.3-.7-.3-1.1c0-.3.1-.6.2-.8s.2-.4.4-.6.4-.3.6-.4.5-.1.8-.1.5 0 .8.1h1.7l.1.8zm-2.7 4.8h-.4c-.1 0-.1.1-.2.1l-.2.2c-.1.1-.1.2-.1.3s-.1.2-.1.4c0 .6.3.9 1 .9.6 0 1-.1 1.3-.3s.4-.5.4-.8-.1-.5-.3-.6-.4-.2-.7-.2h-.7zm1.3-3.7c0-.4-.1-.7-.3-.9s-.4-.3-.7-.3-.5.1-.7.3-.3.5-.3.9.1.7.3.9.4.3.7.3.5-.1.7-.3.3-.5.3-.9zm6.3-1.8l-1.8 6a4.77 4.77 0 0 1-.8 1.6c-.3.4-.7.5-1.3.5h-.3c-.1 0-.1 0-.2-.1v-.8s.1 0 .2.1h.2c.3 0 .6-.1.8-.3s.3-.5.5-1l.1-.3-1.8-5.7h1l.9 3.2c.1.3.2.6.2.9.1.3.1.5.1.8h0c0-.2.1-.5.1-.7s.1-.6.2-.9l.8-3.2h1.1z"/><path d="M43.5 58.7c1 1.6 1.8 1.6 3 1.6-1-.8-1.7-1.8-2-2.3l-1.9-3c-.2-.9-.7-1.8-1.4-2.4l.6-.3c-1.2 0-2.4-.6-3.1-.6-.4 0-.7.3-.7.6 0 .4.4.8 1.1.8.2 0 .4 0 .6-.1.4.5.7 1 .7 1.7 0 1.3-1.6 2.3-3.1 2.3H37c-.1-.3-.6-.9-.6-1.5 0-1 .7-1.9.7-2.9 0-.6-.3-1-.4-1.2.2-.2.4-.4.5-.6-.1 0-.2.1-.4.1-.8 0-1.4-.2-2-.2-.3 0-.4.1-.4.2v.1c-.1-.1-.2-.1-.4-.1s-.4-.1-.6-.1c-.7 0-1 .3-1 .6 0 .2.2.6.4.9.3-.1.6-.2.8-.2.4 0 .7.4.9.8h-.6c-.7 0-1.2-.3-1.3-.3 0 .1.2.4.6.5.5.2 1.3.3 1.4.3 0 0-.1.3-.3.3h-.1c-.5-.1-.7-.2-1.4-.4 0 .3.7.9 1.3 1.1-.5.7-1.2 1.4-1.5 2.4h-.3c-1.6 0-3.1-1-3.1-2.3 0-.7.3-1.2.7-1.7.2 0 .4.1.6.1.7 0 1.1-.4 1.1-.8 0-.3-.3-.6-.7-.6-.7 0-1.9.6-3.1.6.1.1.3.2.6.3-.7.6-1.2 1.5-1.4 2.4l-1.9 3c-.3.5-1 1.5-2 2.3 1.2 0 2 0 3-1.6l1-1.5.3.6-1.9 3.1c-.3.5-1 1.5-2 2.3 1.2 0 2 0 3-1.6l1.6-2.6.4.4-2.3 3.7c-.3.5-1 1.5-2 2.2 1.2 0 2 0 3-1.6l2.3-3.6c.1.1.3.2.5.3l-2.8 4.4c-.3.5-1 1.5-2 2.2 1.2 0 2 0 3-1.6l2.8-4.5c.2.1.3.1.5.2L28.3 66c-.3.5-1 1.5-2 2.2 1.2 0 2 0 3-1.6l3.4-5.5h.1c.1.3.2.6.2.8 0 1.7-1.1 3.2-2.5 4.4.1 0 .2.1.4.1h.6c-.3.7-1 1.6-1.3 2.1-.4-.1-1.1-.1-1.5-.1s-.5.3-.5.5c0 .4.2.7.4.9.1-.2.2-.5 1.1-.5h.1c-.2.3-1 .9-1 1.4 0 .3.4.8.8.8v-.3c0-.4.3-.9.6-1.2v.2c0 .9.1 1.4.7 1.4.3 0 .5-.2.6-.2-.4-.4-.4-.6-.4-1.2v-.5-.4h.5s.8-.1 1 .4c.2-.2.6-.5.6-.8 0-.2-.1-.5-.5-.5-.2 0-.7.1-1.1.1.1-.3.6-1 1.1-1.6.1.2.2.4.4.6 0-.4.2-1.5.8-2.1.1.4.2.9.2 1.8 0 2.3-.6 4-1.7 4.3.2.3.5.5.8.5.4 0 .7-.5.9-.9.1.3.5 1.2.8 1.2s.7-.8.8-1.2c.2.5.5.9.9.9.3 0 .7-.2.8-.5-1.2-.3-1.7-2-1.7-4.3 0-1 .1-1.4.1-1.8.6.7.8 1.8.8 2.1.2-.2.3-.4.4-.6.4.5 1 1.3 1.1 1.6-.4 0-.9-.1-1.1-.1-.4 0-.5.2-.5.5s.3.6.6.8c.2-.4 1-.4 1-.4h.5v.4.5c0 .5 0 .8-.4 1.2.1 0 .3.2.6.2.6 0 .7-.4.7-1.4V70c.3.3.6.8.6 1.2v.3c.5 0 .8-.5.8-.8 0-.5-.7-1.1-1-1.4h.1c.8 0 1 .3 1.1.5.2-.2.4-.5.4-.9 0-.2 0-.5-.5-.5-.4 0-1.1.1-1.5.1-.3-.5-1-1.4-1.3-2.1h.6c.1 0 .3 0 .4-.1-1.4-1.2-2.5-2.7-2.5-4.4 0-.3.1-.6.2-.8h.1l3.4 5.5c1 1.6 1.8 1.6 3 1.6-1-.8-1.7-1.8-2-2.2L38 60.9c.2-.1.3-.1.5-.2l2.8 4.5c1 1.6 1.8 1.6 3 1.6-1-.8-1.7-1.7-2-2.2l-2.8-4.4c.2-.1.3-.2.5-.3l2.3 3.6c1 1.6 1.8 1.6 3 1.6-1-.8-1.7-1.7-2-2.2L41 59.2c.1-.1.3-.2.4-.4l1.6 2.6c1 1.6 1.8 1.6 3 1.6-1-.8-1.7-1.7-2-2.3l-1.9-3.1.3-.6 1.1 1.7zm-15.3-3.5c0-1.1.8-2 1.1-2.3h.2c-.3.4-.9 1-.9 1.9 0 1.7 1.8 3.1 3.8 3.1v.4.7c-2.2 0-4.2-1.8-4.2-3.8zm3.1 13.7h0 0 1.2.3c.2 0 .3 0 .3.2 0 .1-.2.4-.3.5-.2-.2-.6-.3-1-.3-.2 0-.5 0-.7.1h0 0v.1.5.2.3c0 .5.1.9.3 1.1h-.2c-.3 0-.4-.1-.4-1.1V70v-.2h0c-.5.4-1 1.1-1.1 1.6a.55.55 0 0 1-.3-.5c0-.3.4-.7.9-1.2l.3-.3h0-.1c-.1 0-.3-.1-.5-.1-.5 0-.9.1-1.1.3-.1-.1-.1-.4-.1-.5s0-.2.1-.2h.2 0c.6 0 1.3.1 1.6.2h0 0c0-.1 1.2-1.6 1.5-2.4h.2c.2 0 .3.2.4.4-.9.6-1.4 1.3-1.5 1.8zm6.1-2.4h.2c.3.8 1.4 2.3 1.5 2.4h0 0c.3 0 1-.2 1.6-.2h0 .2s.1.1.1.2-.1.4-.1.5c-.2-.2-.6-.3-1.1-.3-.2 0-.4 0-.5.1h0 0l.3.3c.5.5.9.9.9 1.2 0 .2-.2.4-.3.5 0-.5-.5-1.2-1.1-1.6h0v.2.5c0 1-.1 1.1-.4 1.1h-.2c.2-.2.3-.5.3-1.1V70v-.2-.5-.1h-.1c-.2 0-.5-.1-.7-.1-.5 0-.8 0-1 .3a.55.55 0 0 1-.3-.5c0-.2.1-.2.3-.2h.3c.2 0 .5.1 1.2.1h0 0c-.2-.5-.6-1.1-1.3-2-.1-.2 0-.3.2-.3zm-2.6-13.3c-.1-.3-.2-.6-.4-.8s-.5-.5-.9-.5c-.2 0-.5.1-.7.2-.1-.1-.2-.4-.2-.6 0-.1.2-.3.7-.3 1 0 1.6.5 1.6 1.2.1.3 0 .5-.1.8zm.4-1.1c0-.2-.1-.4-.2-.6 0-.2.1-.4.4-.2-.2.2 0 .5 0 .5s.4-.2.3-.4c.5.1.1.8-.5.7zm2.1 6.9v-.7-.4c2 0 3.7-1.5 3.7-3.1 0-.8-.5-1.5-.9-1.9h.2c.3.3 1.1 1.2 1.1 2.3.1 2-1.9 3.8-4.1 3.8z"/></g><defs ><path id="B" d="M34.7 28.7l.8.1v.1c0 .2-.1.3-.4.4l-1.5.1v-.7h0c-.2.2-.7.8-1.6.8-1.2 0-1.7-.7-1.7-2v-2.8l-.8-.1v-.1c0-.2.1-.3.4-.3l1.5-.1v3.5c0 1 .5 1.2 1 1.2.6 0 .9-.2 1.2-.5v-3.5l-.8-.1v-.1c0-.2.1-.3.4-.3l1.5-.1v4.5z"/><path id="C" d="M53.9 26.6c0 1.9-1.3 2.8-2.7 2.8s-2.5-.9-2.5-2.7c0-1.9 1.3-2.8 2.7-2.8s2.5.8 2.5 2.7zm-4 .1c0 1.5.6 2.1 1.4 2.1s1.4-.6 1.4-2.1-.6-2.2-1.4-2.2-1.4.7-1.4 2.2z"/><path id="D" d="M64.5 26.7c0 1.4.7 2 1.6 2 .7 0 1.1-.3 1.4-.5a.76.76 0 0 1 .2.4c0 .3-.7.9-1.9.9-1.4 0-2.4-.8-2.4-2.7s1.2-2.9 2.4-2.9 1.9.8 1.9 1.9c0 .3-.1.7-.1.9h-3.1zm1.9-.6c0-.1.1-.3.1-.5 0-.6-.2-1.1-.9-1.1-.6 0-1 .5-1.1 1.6h1.9z"/><path id="E" d="M73.4 28.7l.8.1v.1c0 .2-.1.3-.4.4l-1.5.1v-.7h0c-.2.3-.7.8-1.6.8-1.1 0-2.1-.7-2.1-2.6 0-2 1.4-3 2.8-3 .3 0 .6.1.8.1v-1.9l-.8-.1v-.1c0-.2.1-.3.4-.3l1.5-.1v7.2zm-1.1-3.8c-.2-.2-.5-.3-.9-.3-.9 0-1.6.6-1.6 2.1 0 1.4.6 2 1.4 2 .6 0 1-.3 1.1-.5v-3.3z"/><path id="F" d="M78.8 24.6h0c.3-.3.8-.7 1.6-.7 1 0 2 .7 2 2.6 0 2.1-1.4 3-2.9 3-1 0-1.6-.3-1.9-.4v-7l-.8-.1v-.1c0-.2.1-.3.4-.3l1.5-.1v3.1zm0 3.9c.2.1.5.3 1 .3 1 0 1.6-.6 1.6-2.1s-.7-1.9-1.4-1.9c-.5 0-.9.2-1.1.5v3.2z"/><path id="G" d="M35.4 141.1l.6.1c.1 0 .2.1.2.1 0 .1-.1.3-.1.3h-2.5v-.1c0-.2.1-.3.3-.4l.4-.1v-2.8c0-.9-.5-1.2-1.1-1.2s-1 .3-1.3.5v3.5l.6.1c.1 0 .2.1.2.1 0 .1-.1.3-.1.3h-2.5v-.1c0-.2.1-.3.3-.4l.4-.1v-4.1l-.8-.1v-.1c0-.2.1-.3.4-.3l1.5-.1-.1.8h0c.3-.3.8-.8 1.8-.8 1.1 0 1.7.7 1.7 1.9v3z"/><path id="H" d="M50.9 139.1c0 1.4.7 2 1.6 2 .7 0 1.1-.3 1.4-.5a.76.76 0 0 1 .2.4c0 .3-.7.9-1.9.9-1.4 0-2.4-.8-2.4-2.7s1.2-2.9 2.4-2.9 1.9.8 1.9 1.9c0 .3-.1.7-.1.9h-3.1zm2-.6c0-.1.1-.3.1-.5 0-.6-.2-1.1-.9-1.1-.6 0-1 .5-1.1 1.6h1.9z"/><path id="I" d="M67.4 140.6c0 .4.2.6.4.6.3 0 .4-.1.4-.2.1.1.1.2.1.3s-.3.6-1 .6c-.5 0-.8-.2-.9-.8h0c-.1.2-.5.8-1.4.8-.8 0-1.4-.6-1.4-1.4 0-1.2 1.3-1.6 2.5-1.6h.3v-.5c0-1-.3-1.4-.9-1.4-.3 0-.5.1-.6.1-.1.2-.2.6-.2 1h-.3c-.4 0-.6-.2-.6-.5 0-.7.9-1.2 1.9-1.2 1.2 0 1.8.7 1.8 1.9v2.3zm-1.3-1.2c-.9 0-1.4.4-1.4.9s.3.8.7.8c.5 0 .8-.3.9-.5v-1.3l-.2.1z"/><path id="J" d="M71.4 137.1c-.1-.1-.4-.2-.7-.2-.4 0-.7.2-.7.6 0 .5.5.8 1 1.1.7.4 1.4.8 1.4 1.7s-.7 1.6-2 1.6a3.66 3.66 0 0 1-1.4-.3c0-.3-.1-.6-.1-.8 0-.4.1-.6.5-.6h.1l.2.9c.1.1.4.2.7.2.5 0 .9-.2.9-.7s-.5-.7-1-1c-.7-.4-1.3-.9-1.3-1.8s.7-1.4 1.8-1.4c.6 0 1.1.2 1.3.4v.6c0 .4-.1.6-.5.6h-.1l-.1-.9z"/><path id="K" d="M41.2 148h-1.5v3.2c0 .5.2.9.7.9.4 0 .8-.2.9-.3.1.1.1.3.1.4s-.4.6-1.4.6-1.4-.6-1.4-1.4V148h-.8v-.1c0-.2.1-.3.3-.4l.5-.1.3-1.5h.8v1.5h1.6l-.1.6z"/></defs></svg>