<svg xmlns="http://www.w3.org/2000/svg" xmlns:xlink="http://www.w3.org/1999/xlink" width="170" height="175" xmlns:v="https://vecta.io/nano"><path fill="#fff" d="M0 0h170v175H0z"/><path d="M28.6 22.3a3.07 3.07 0 0 0-1.3-.3c-1.3 0-2.5.8-2.5 3 0 2.1 1 3.1 2.4 3.1a3.73 3.73 0 0 0 1.2-.2v-2.1l-.6-.1c-.1 0-.1-.1-.1-.1 0-.1.1-.2.1-.3h2.4v.1c0 .2-.1.3-.4.4l-.2.1V28c-.3.3-1.1.8-2.6.8-1.8 0-3.3-1.1-3.3-3.7 0-2.7 2-3.8 3.8-3.8 1.1 0 1.7.3 2 .5 0 .3.1 1 .1 1 0 .3-.1.5-.4.5H29l-.4-1zm3.3 3.9c0 1.3.6 1.9 1.5 1.9.7 0 1-.3 1.3-.5a.76.76 0 0 1 .2.4c0 .3-.7.9-1.9.9-1.3 0-2.3-.7-2.3-2.6s1.1-2.8 2.3-2.8 1.8.7 1.8 1.8c0 .3-.1.6-.1.9h-2.8zm1.8-.5c0-.1.1-.3.1-.5 0-.6-.2-1.1-.8-1.1s-1 .5-1.1 1.5h1.8z"/><use xlink:href="#B"/><path d="M44.1 26.1c0 1.8-1.3 2.7-2.6 2.7s-2.4-.8-2.4-2.6 1.3-2.7 2.6-2.7 2.4.8 2.4 2.6zm-3.4-3.3c-.3 0-.6-.2-.6-.6s.3-.6.6-.6.6.2.6.6c-.1.4-.3.6-.6.6zm-.4 3.4c0 1.4.6 2 1.3 2 .8 0 1.4-.6 1.4-2s-.6-2.1-1.4-2.1c-.8.1-1.3.7-1.3 2.1zm2.3-3.4c-.3 0-.6-.2-.6-.6s.2-.6.6-.6c.3 0 .6.2.6.6-.1.4-.3.6-.6.6z"/><use xlink:href="#C"/><use xlink:href="#D"/><path d="M56 26.2c0 1.3.6 1.9 1.5 1.9.7 0 1-.3 1.3-.5a.76.76 0 0 1 .2.4c0 .3-.7.9-1.9.9-1.3 0-2.3-.7-2.3-2.6s1.1-2.8 2.3-2.8 1.8.7 1.8 1.8c0 .3-.1.6-.1.9H56zm1.8-.5c0-.1.1-.3.1-.5 0-.6-.2-1.1-.8-1.1s-1 .5-1.1 1.5h1.8z"/><use xlink:href="#C" x="14.9"/><path d="M67 24.2h-1.4v3.1c0 .5.1.9.7.9.4 0 .7-.2.8-.3.1.1.1.2.1.3s-.4.6-1.3.6c-1 0-1.3-.6-1.3-1.4v-3.3h-.8V24c0-.2.1-.3.3-.4l.5-.1.2-1.4h.8v1.4h1.6l-.2.7z"/><use xlink:href="#D" x="20.9"/><path d="M80.4 28.1l.8.1v.1c0 .2-.1.3-.4.3l-1.4.1V28h0c-.2.2-.6.8-1.6.8-1.1 0-1.6-.7-1.6-1.9v-2.7l-.7-.1V24c0-.2.1-.3.4-.3l1.4-.1v3.3c0 1 .5 1.2 1 1.2s.9-.2 1.1-.5v-3.3l-.7-.1v-.1c0-.2.1-.3.4-.3l1.4-.1v4.4z"/><use xlink:href="#C" x="36.9"/><path d="M88.3 24.2c-.7 0-1.3.5-1.3 1.9 0 1.3.5 2.1 1.5 2.1.7 0 1-.3 1.2-.5a.76.76 0 0 1 .2.4c0 .3-.6.9-1.7.9-1.4 0-2.2-.9-2.2-2.6 0-1.8 1.2-2.7 2.6-2.7 1.2 0 1.4.6 1.4.9s-.1.5-.5.6c-.3-.5-.5-1-1.2-1zm3.9.1h0c.2-.3.7-.8 1.6-.8 1 0 1.6.6 1.6 1.8v2.8l.6.1c.1 0 .1.1.1.1 0 .1-.1.3-.1.3h-2.4v-.1c0-.2.1-.3.3-.3l.3-.1v-2.7c0-.9-.5-1.2-1-1.2-.7 0-1 .3-1.2.5V28l.6.1c.1 0 .1.1.1.1 0 .1-.1.3-.1.3h-2.4v-.1c0-.2.1-.3.3-.3l.4-.1v-6.4l-.7-.1v-.1c0-.2.1-.3.4-.3L92 21v3.3zm5.4.5c-.4 0-.7-.3-.7-.6a.7.7 0 1 1 1.4 0c-.1.4-.4.6-.7.6zm0 4.1c-.4 0-.7-.3-.7-.6a.7.7 0 1 1 1.4 0c-.1.3-.4.6-.7.6z"/><use xlink:href="#E"/><use xlink:href="#F"/><use xlink:href="#B" x="-1.1" y="112.2"/><path d="M42.9 136.4H42a1.69 1.69 0 0 1 .3 1c0 1.1-.9 1.7-2.1 1.7-.2 0-.3 0-.5-.1-.1.1-.3.2-.3.5s.2.4.5.4h1.2c1 0 1.5.4 1.5 1.2 0 1-1 2-2.8 2-1.3 0-1.9-.5-1.9-1.2s.6-1.1 1-1.2h0c-.3-.1-.4-.4-.4-.7 0-.6.6-.9.8-1h0c-.6-.3-1-.8-1-1.6 0-1.1.9-1.7 2-1.7.3 0 .6 0 .8.1H43l-.1.6zm-3 4.4h-.4c-.3.2-.5.4-.5.8 0 .5.3.9 1.1.9 1 0 1.6-.5 1.6-1 0-.4-.2-.6-.8-.6h-1zm-.5-3.4c0 .8.4 1.2.9 1.2.6 0 1-.3 1-1.2 0-.7-.4-1.1-1-1.1s-.9.3-.9 1.1zm5.7-.7h0c.3-.4.6-1 1.3-1 .5 0 .7.2.7.6 0 .2-.1.4-.2.5-.1 0-.3-.2-.7-.2-.6 0-.9.2-1.1.5v3.2l.8.1c.1 0 .1.1.1.1 0 .1-.1.3-.1.3h-2.5v-.1c0-.2.1-.3.3-.3l.4-.1v-3.9l-.7-.1v-.1c0-.2.1-.3.4-.3l1.4-.1-.1.9z"/><use xlink:href="#F" x="19.1"/><path d="M58.7 140.3l.6.1c.1 0 .1.1.1.1 0 .1-.1.3-.1.3H57v-.1c0-.2.1-.3.3-.3l.3-.1v-2.7c0-.9-.5-1.2-1-1.2-.6 0-1 .3-1.2.5v3.4l.6.1c.1 0 .1.1.1.1 0 .1-.1.3-.1.3h-2.4v-.1c0-.2.1-.3.3-.3l.4-.1v-3.9l-.7-.1v-.1c0-.2.1-.3.4-.3l1.4-.1-.1.7h0c.3-.3.8-.8 1.7-.8 1 0 1.6.7 1.6 1.8v2.8z"/><use xlink:href="#G"/><path d="M69.2 138.4c0 1.3.6 1.9 1.5 1.9.7 0 1-.3 1.3-.5a.76.76 0 0 1 .2.4c0 .3-.7.9-1.9.9-1.3 0-2.3-.7-2.3-2.6 0-1.8 1.1-2.8 2.3-2.8s1.8.7 1.8 1.8c0 .3-.1.6-.1.9h-2.8zm1.8-.6c0-.1.1-.3.1-.5 0-.6-.2-1.1-.8-1.1s-1 .5-1.1 1.5H71zm3.7 2.5l.6.1c.1 0 .1.1.1.1 0 .1-.1.3-.1.3h-2.4v-.1c0-.2.1-.3.3-.3l.4-.1v-3.9l-.7-.1v-.1c0-.2.1-.3.4-.3l1.4-.1v4.5zm-.5-5.6a.7.7 0 1 1 0-1.4.68.68 0 0 1 .7.7c-.1.5-.4.7-.7.7zm6.8 5.6l.6.1c.1 0 .1.1.1.1 0 .1-.1.3-.1.3h-2.4v-.1c0-.2.1-.3.3-.3l.3-.1v-2.7c0-.9-.5-1.2-1-1.2-.6 0-1 .3-1.2.5v3.4l.6.1c.1 0 .1.1.1.1 0 .1-.1.3-.1.3H76v-.1c0-.2.1-.3.3-.3l.4-.1v-3.9l-.7-.1v-.1c0-.2.1-.3.4-.3l1.4-.1-.1.7h0c.3-.3.8-.8 1.7-.8 1 0 1.6.7 1.6 1.8v2.8z"/><use xlink:href="#H"/><use xlink:href="#I"/><use xlink:href="#J"/><use xlink:href="#H" x="17.8"/><use xlink:href="#I" x="17.8"/><path d="M111.6 136.3c-.7 0-1.3.5-1.3 1.9 0 1.3.5 2.1 1.5 2.1.7 0 1-.3 1.2-.5a.76.76 0 0 1 .2.4c0 .3-.6.9-1.7.9-1.4 0-2.2-.9-2.2-2.6 0-1.8 1.2-2.7 2.6-2.7 1.2 0 1.4.6 1.4.9s-.1.5-.5.6c-.2-.5-.5-1-1.2-1z"/><use xlink:href="#K"/><path d="M121.7 140.3l.6.1c.1 0 .1.1.1.1 0 .1-.1.3-.1.3H120v-.1c0-.2.1-.3.3-.3l.4-.1v-6.4l-.7-.1v-.1c0-.2.1-.3.4-.3l1.4-.1v7z"/><use xlink:href="#F" x="94.5"/><use xlink:href="#I" x="41.9"/><use xlink:href="#I" x="46"/><path d="M138.6 138.4c0 1.3.6 1.9 1.5 1.9.7 0 1-.3 1.3-.5a.76.76 0 0 1 .2.4c0 .3-.7.9-1.9.9-1.3 0-2.3-.7-2.3-2.6 0-1.8 1.1-2.8 2.3-2.8s1.8.7 1.8 1.8c0 .3-.1.6-.1.9h-2.8zm1.8-.6c0-.1.1-.3.1-.5 0-.6-.2-1.1-.8-1.1s-1 .5-1.1 1.5h1.8z"/><use xlink:href="#I" x="55.1"/><use xlink:href="#G" x="-36.3" y="12"/><use xlink:href="#L"/><use xlink:href="#I" x="-52.8" y="12"/><path d="M43.2 152.9h-2.4v-.1c0-.2.1-.3.4-.4l.4-.1v-6.1l-.6-.1c-.1 0-.1-.1-.1-.1 0-.1.1-.2.1-.3h2.3c2.6 0 4.2 1 4.2 3.5s-1.6 3.7-4.3 3.7zm0-6.6h-.4v6h.4c1.9 0 3.1-1 3.1-3.1-.1-2-1.2-2.9-3.1-2.9z"/><use xlink:href="#M"/><use xlink:href="#F" x="24.7" y="12"/><path d="M62.4 148.4H61v3.1c0 .5.1.9.7.9.4 0 .7-.2.8-.3.1.1.1.2.1.3s-.4.6-1.3.6-1.3-.6-1.3-1.4v-3.3h-.8v-.1c0-.2.1-.3.3-.4l.5-.1.2-1.4h.8v1.4h1.6l-.2.7z"/><use xlink:href="#I" x="-24.2" y="12"/><path d="M69.7 148.3c-.7 0-1.3.5-1.3 1.9 0 1.3.5 2.1 1.5 2.1.7 0 1-.3 1.2-.5a.76.76 0 0 1 .2.4c0 .3-.6.9-1.7.9-1.4 0-2.2-.9-2.2-2.6 0-1.8 1.2-2.7 2.6-2.7 1.2 0 1.4.6 1.4.9s-.1.5-.5.6c-.3-.5-.6-1-1.2-1z"/><use xlink:href="#K" x="-42" y="12"/><use xlink:href="#L" x="48.6"/><path d="M88 152.3l.6.1c.1 0 .1.1.1.1 0 .1-.1.3-.1.3h-2.4v-.1c0-.2.1-.3.3-.3l.3-.1v-2.7c0-.9-.5-1.2-1-1.2-.6 0-1 .3-1.2.5v3.4l.6.1c.1 0 .1.1.1.1 0 .1-.1.3-.1.3H83v-.1c0-.2.1-.3.3-.3l.4-.1v-3.9l-.7-.1v-.1c0-.2.1-.3.4-.3l1.4-.1-.1.7h0c.3-.3.8-.8 1.7-.8 1 0 1.6.7 1.6 1.8v2.8z"/><use xlink:href="#J" x="-2.1" y="12"/><use xlink:href="#F" x="69.4" y="12"/><path d="M109 152.3l.6.1c.1 0 .1.1.1.1 0 .1-.1.3-.1.3h-2.4v-.1c0-.2.1-.3.3-.3l.3-.1v-2.7c0-.9-.5-1.2-1-1.2-.6 0-1 .3-1.2.5v3.4l.6.1c.1 0 .1.1.1.1 0 .1-.1.3-.1.3H104v-.1c0-.2.1-.3.3-.3l.4-.1v-3.9l-.7-.1v-.1c0-.2.1-.3.4-.3l1.4-.1-.1.7h0c.3-.3.8-.8 1.7-.8 1 0 1.6.7 1.6 1.8v2.8z"/><use xlink:href="#G" x="50.4" y="12"/><use xlink:href="#L" x="86.7"/><use xlink:href="#I" x="33.9" y="12"/><path d="M128.3 148.4h-1.4v3.1c0 .5.1.9.7.9.4 0 .7-.2.8-.3.1.1.1.2.1.3s-.4.6-1.3.6c-1 0-1.3-.6-1.3-1.4v-3.3h-.9v-.1c0-.2.1-.3.3-.4l.5-.1.2-1.4h.8v1.4h1.6l-.1.7z"/><use xlink:href="#E" x="105.4" y="12"/><path d="M138.6 148.4h-.9a1.69 1.69 0 0 1 .3 1c0 1.1-.9 1.7-2.1 1.7-.2 0-.3 0-.5-.1-.1.1-.3.2-.3.5s.2.4.5.4h1.2c1 0 1.5.4 1.5 1.2 0 1-1 2-2.8 2-1.3 0-1.9-.5-1.9-1.2s.6-1.1 1-1.2h0c-.3-.1-.4-.4-.4-.7 0-.6.6-.9.8-1h0c-.6-.3-1-.8-1-1.6 0-1.1.9-1.7 2-1.7.3 0 .6 0 .8.1h1.8v.6zm-3 4.4h-.4c-.3.2-.5.4-.5.8 0 .5.3.9 1.1.9 1 0 1.6-.5 1.6-1 0-.4-.2-.6-.8-.6h-1zm-.4-3.4c0 .8.4 1.2.9 1.2.6 0 1-.3 1-1.2 0-.7-.4-1.1-1-1.1s-.9.3-.9 1.1z"/><use xlink:href="#M" x="90.9"/><use xlink:href="#I" x="56.9" y="12"/><path fill="#fc0" d="M54.5 91.5H56v20h-3.5v-20z"/><path fill="red" d="M54.5 71.5H56v20h-3.5v-20z"/><path d="M43.4 58.5c1 1.6 1.8 1.6 3 1.6-1-.8-1.7-1.8-2-2.3l-1.9-3c-.2-.9-.7-1.8-1.4-2.4l.6-.3c-1.2 0-2.4-.6-3.1-.6-.4 0-.7.3-.7.6 0 .4.4.8 1.1.8.2 0 .4 0 .6-.1.4.5.7 1 .7 1.7 0 1.3-1.6 2.3-3.1 2.3h-.3c-.1-.3-.6-.9-.6-1.5 0-1 .7-1.9.7-2.9 0-.6-.3-1-.4-1.2.2-.2.4-.4.5-.6-.1 0-.2.1-.4.1-.8 0-1.4-.2-2-.2-.3 0-.4.1-.4.2v.1c-.1-.1-.2-.1-.4-.1s-.4-.1-.6-.1c-.7 0-1 .3-1 .6 0 .2.2.6.4.9.3-.1.6-.2.8-.2.4 0 .7.4.9.8h-.6c-.7 0-1.2-.3-1.3-.3 0 .1.2.4.6.5.5.2 1.3.3 1.4.3 0 0-.1.3-.3.3h-.1c-.5-.1-.7-.2-1.4-.4 0 .3.7.9 1.3 1.1-.5.7-1.2 1.4-1.5 2.4h-.3c-1.6 0-3.1-1-3.1-2.3 0-.7.3-1.2.7-1.7.2 0 .4.1.6.1.7 0 1.1-.4 1.1-.8 0-.3-.3-.6-.7-.6-.7 0-1.9.6-3.1.6.1.1.3.2.6.3-.7.6-1.2 1.5-1.4 2.4l-1.9 3c-.3.5-1 1.5-2 2.3 1.2 0 2 0 3-1.6l1-1.5.3.6-1.9 3.1c-.3.5-1 1.5-2 2.3 1.2 0 2 0 3-1.6l1.6-2.6.4.4-2.3 3.7c-.3.5-1 1.5-2 2.2 1.2 0 2 0 3-1.6l2.3-3.6c.1.1.3.2.5.3l-2.8 4.4c-.3.5-1 1.5-2 2.2 1.2 0 2 0 3-1.6l2.8-4.5c.2.1.3.1.5.2l-3.2 5.1c-.3.5-1 1.5-2 2.2 1.2 0 2 0 3-1.6l3.4-5.5h.1c.1.3.2.6.2.8 0 1.7-1.1 3.2-2.5 4.4.1 0 .2.1.4.1h.6c-.3.7-1 1.6-1.3 2.1-.4-.1-1.1-.1-1.5-.1s-.5.3-.5.5c0 .4.2.7.4.9.1-.2.2-.5 1.1-.5h.1c-.2.3-1 .9-1 1.4 0 .3.4.8.8.8V71c0-.4.3-.9.6-1.2v.2c0 .9.1 1.4.7 1.4.3 0 .5-.2.6-.2-.4-.4-.4-.6-.4-1.2v-.5-.4h.5s.8-.1 1 .4c.2-.2.6-.5.6-.8 0-.2-.1-.5-.5-.5-.2 0-.7.1-1.1.1.1-.3.6-1 1.1-1.6.1.2.2.4.4.6 0-.4.2-1.5.8-2.1.1.4.2.9.2 1.8 0 2.3-.6 4-1.7 4.3.2.3.5.5.8.5.4 0 .7-.5.9-.9.1.3.5 1.2.8 1.2s.7-.8.8-1.2c.2.5.5.9.9.9.3 0 .7-.2.8-.5-1.2-.3-1.7-2-1.7-4.3 0-1 .1-1.4.1-1.8.6.7.8 1.8.8 2.1.2-.2.3-.4.4-.6.4.5 1 1.3 1.1 1.6-.4 0-.9-.1-1.1-.1-.4 0-.5.2-.5.5s.3.6.6.8c.2-.4 1-.4 1-.4h.5v.4.5c0 .5 0 .8-.4 1.2.1 0 .3.2.6.2.6 0 .7-.4.7-1.4v-.2c.3.3.6.8.6 1.2v.3c.5 0 .8-.5.8-.8 0-.5-.7-1.1-1-1.4h.1c.8 0 1 .3 1.1.5.2-.2.4-.5.4-.9 0-.2 0-.5-.5-.5-.4 0-1.1.1-1.5.1-.3-.5-1-1.4-1.3-2.1h.6c.1 0 .3 0 .4-.1-1.4-1.2-2.5-2.7-2.5-4.4 0-.3.1-.6.2-.8h.1l3.4 5.5c1 1.6 1.8 1.6 3 1.6-1-.8-1.7-1.8-2-2.2l-3.2-5.1c.2-.1.3-.1.5-.2l2.8 4.5c1 1.6 1.8 1.6 3 1.6-1-.8-1.7-1.7-2-2.2L39.5 60c.2-.1.3-.2.5-.3l2.3 3.6c1 1.6 1.8 1.6 3 1.6-1-.8-1.7-1.7-2-2.2L41 59c.1-.1.3-.2.4-.4l1.6 2.6c1 1.6 1.8 1.6 3 1.6-1-.8-1.7-1.7-2-2.3l-1.9-3.1.3-.6 1 1.7zm-15.3-3.6c0-1.1.8-2 1.1-2.3h.2c-.3.4-.9 1-.9 1.9 0 1.7 1.8 3.1 3.8 3.1v.4.7c-2.2.1-4.2-1.8-4.2-3.8zm3.1 13.7h0 0 1.2.3c.2 0 .3 0 .3.2 0 .1-.2.4-.3.5-.3-.3-.7-.3-1.1-.3-.2 0-.5 0-.7.1h0 0v.1.5.2.3c0 .5.1.9.3 1.1H31c-.3 0-.4-.1-.4-1.1v-.5-.2h0c-.5.4-1 1.1-1.1 1.6a.55.55 0 0 1-.3-.5c0-.3.4-.7.9-1.2l.3-.3h0-.1c-.1 0-.3-.1-.5-.1-.5 0-.9.1-1.1.3-.1-.1-.1-.4-.1-.5s0-.2.1-.2h.2 0c.6 0 1.3.1 1.6.2h0 0c0-.1 1.2-1.6 1.5-2.4h.2c.2 0 .3.2.4.4-.8.7-1.3 1.4-1.4 1.8zm6.2-2.4h.2c.3.8 1.4 2.3 1.5 2.4h0 0c.3 0 1-.2 1.6-.2h0 .2s.1.1.1.2-.1.4-.1.5c-.2-.2-.6-.3-1.1-.3-.2 0-.4 0-.5.1h0 0l.3.3c.5.5.9.9.9 1.2 0 .2-.2.4-.3.5 0-.5-.5-1.2-1.1-1.6h0v.2.5c0 1-.1 1.1-.4 1.1h-.2c.2-.2.3-.5.3-1.1v-.3-.2-.5-.1h-.1c-.2 0-.5-.1-.7-.1-.5 0-.8 0-1 .3a.55.55 0 0 1-.3-.5c0-.2.1-.2.3-.2h.3c.2 0 .5.1 1.2.1h0 0c-.2-.5-.6-1.1-1.3-2-.1-.1-.1-.3.2-.3zm-2.7-13.3c-.1-.3-.2-.6-.4-.8s-.5-.5-.9-.5c-.2 0-.5.1-.7.2-.1-.1-.2-.4-.2-.6 0-.1.2-.3.7-.3 1 0 1.6.5 1.6 1.2.1.4 0 .6-.1.8zm.5-1c0-.2-.1-.4-.2-.6 0-.2.1-.4.4-.2-.2.2 0 .5 0 .5s.4-.2.3-.4c.4.1 0 .8-.5.7zm2 6.9v-.7-.4c2 0 3.7-1.5 3.7-3.1 0-.8-.5-1.5-.9-1.9h.2c.3.3 1.1 1.2 1.1 2.3.1 1.9-1.9 3.8-4.1 3.8zM56 51.5v20h-1.5-2v-20z"/><path d="M67.7 53.4c0 .3 0 .5-.1.7l-.3.6c-.1.2-.3.3-.4.4-.2.1-.3.2-.5.2h0c.2 0 .4.1.6.2s.3.2.5.4l.3.6c.1.2.1.5.1.7 0 .3-.1.6-.2.9s-.3.5-.5.7-.5.4-.9.5-.8.2-1.3.2h-1.7v-8.2H65c.5 0 .9 0 1.2.1s.6.2.9.4.4.4.5.7.1.6.1.9zm-1 0c0-.4-.1-.7-.4-.9s-.7-.4-1.3-.4h-.5V55h.5c.6 0 1-.1 1.3-.4s.4-.7.4-1.2zm.2 3.8c0-.4-.1-.8-.4-1.1s-.7-.4-1.2-.4h-.7v2.9h.6c.6 0 1.1-.1 1.3-.4.2-.1.4-.5.4-1zm6.3 2.3h-.9v-.6h0l-.2.2-.3.3a.76.76 0 0 1-.4.2c-.1 0-.4.1-.6.1-.3 0-.5 0-.7-.1s-.4-.2-.5-.4-.3-.4-.3-.6c-.1-.3-.1-.6-.1-1v-3.7h1v3.7c0 .5.1.8.2 1 .2.2.4.3.7.3s.5-.1.7-.2.3-.3.5-.4v-4.4h1v5.6zm4.6 0v-3.7c0-.5-.1-.8-.2-1-.2-.2-.4-.3-.7-.3s-.5.1-.7.2-.3.3-.5.4v4.4h-1v-5.7h.9v.6h0l.2-.2.3-.3c.1-.1.3-.2.5-.2s.4-.1.6-.1c.3 0 .5 0 .7.1s.4.2.5.4.3.4.3.6c.1.3.1.6.1 1v3.7h-1zm2.2-2.7c0-.6.1-1.1.2-1.5.2-.4.3-.7.6-.9.2-.2.5-.4.8-.5s.6-.1.9-.1h.5c.1 0 .2.1.3.1v-2.7l1-.1v8.5h-.9V59h0s-.1.1-.1.2c-.1.1-.2.2-.3.2-.1.1-.2.2-.4.2-.2.1-.4.1-.6.1-.3 0-.5-.1-.8-.2-.2-.1-.5-.3-.6-.5-.2-.2-.3-.5-.4-.9-.2-.4-.2-.8-.2-1.3zm2.2 2c.2 0 .3 0 .4-.1.1 0 .2-.1.3-.1.1-.1.2-.1.2-.2.1-.1.1-.1.1-.2v-3.5c-.1-.1-.2-.1-.3-.1s-.3-.1-.4-.1c-.2 0-.4 0-.6.1s-.4.2-.5.4-.3.4-.3.7c-.1.3-.1.6-.1 1s0 .7.1 1 .2.5.3.6c.1.2.3.3.4.4s.3.1.4.1zm7.2-3.1v.6.5h-2.9c0 .7.2 1.2.4 1.5.3.3.6.5 1.1.5.2 0 .3 0 .5-.1.1 0 .3-.1.4-.1.1-.1.2-.1.2-.2l.1-.1.4.7-.2.2c-.1.1-.2.2-.3.2-.1.1-.3.1-.5.2s-.4.1-.7.1c-.4 0-.7-.1-1-.2s-.5-.3-.7-.6-.4-.6-.5-1-.2-.8-.2-1.4c0-.5.1-.9.2-1.3s.3-.7.5-.9.4-.4.7-.5.5-.2.8-.2c.5 0 1 .2 1.3.5.3.4.4 1 .4 1.6zm-1.8-1.2c-.3 0-.6.1-.8.4s-.3.7-.4 1.2h2.1v-.2-.2c0-.4-.1-.7-.2-.9-.2-.2-.4-.3-.7-.3zm5.6.5l-.3-.3c-.2-.1-.4-.2-.7-.2s-.4.1-.6.2a.76.76 0 0 0-.2.4c0 .2.1.4.2.5s.3.3.6.4l.4.2c.4.2.7.5.9.7a1.69 1.69 0 0 1 .3 1c0 .5-.2.8-.5 1.1s-.8.5-1.4.5c-.2 0-.4 0-.6-.1-.2 0-.3-.1-.5-.2-.1-.1-.2-.1-.3-.2s-.2-.1-.2-.2l.5-.8.2.2.2.2c.1.1.2.1.3.1s.3.1.4.1c.3 0 .5-.1.7-.2s.2-.3.2-.5c0-.1 0-.3-.1-.4 0-.1-.1-.2-.2-.3s-.2-.2-.3-.2c-.1-.1-.2-.2-.4-.2l-.4-.2c-.4-.2-.6-.5-.8-.7a1.69 1.69 0 0 1-.3-1c0-.2 0-.4.1-.6s.2-.3.4-.5c.2-.1.3-.2.5-.3s.4-.1.6-.1.4 0 .6.1c.2 0 .3.1.4.2s.2.1.3.2l.2.2-.2.9zm4.7 4.5v-3.7c0-.5-.1-.8-.2-1s-.4-.3-.7-.3c-.2 0-.3 0-.4.1-.1 0-.2.1-.3.1-.1.1-.2.1-.2.2l-.2.2v4.4h-1v-5.7h.9v.6h0c0-.1.1-.1.2-.2l.3-.3a.76.76 0 0 1 .4-.2c.1 0 .3-.1.5-.1.7 0 1.1.3 1.4.8.1-.1.1-.2.2-.3s.2-.2.3-.2c.1-.1.3-.1.4-.2s.3-.1.5-.1c1.2 0 1.7.7 1.7 2v3.8h-1v-3.7c0-.5-.1-.8-.2-1-.2-.2-.4-.3-.7-.3s-.5.1-.7.2-.3.3-.4.4v.3.3 3.8h-.8zm6.3 0h-1v-5.7h1v5.7zm-.5-7.1c-.2 0-.4-.1-.5-.2s-.2-.3-.2-.5.1-.4.2-.5.3-.2.5-.2.3.1.5.2c.1.1.2.3.2.5s-.1.4-.2.5c-.1.2-.3.2-.5.2zm5.1 7.1v-3.7c0-.5-.1-.8-.2-1-.2-.2-.4-.3-.7-.3s-.5.1-.7.2-.3.3-.5.4v4.4h-1v-5.7h.9v.6h0l.2-.2.3-.3c.1-.1.3-.2.5-.2s.4-.1.6-.1c.3 0 .5 0 .7.1s.4.2.5.4.3.4.3.6c.1.3.1.6.1 1v3.7h-1zm3.4 0h-1v-5.7h1v5.7zm-.5-7.1c-.2 0-.4-.1-.5-.2s-.2-.3-.2-.5.1-.4.2-.5.3-.2.5-.2.3.1.5.2c.1.1.2.3.2.5s-.1.4-.2.5c-.1.2-.3.2-.5.2zm4.4 2.6l-.3-.3c-.2-.1-.4-.2-.7-.2s-.4.1-.6.2a.76.76 0 0 0-.2.4c0 .2.1.4.2.5s.3.3.6.4l.4.2c.4.2.7.5.9.7a1.69 1.69 0 0 1 .3 1c0 .5-.2.8-.5 1.1s-.8.5-1.4.5c-.2 0-.4 0-.6-.1s-.3-.1-.5-.2c-.1-.1-.2-.1-.3-.2s-.2-.1-.2-.2l.5-.8.2.2.2.2c.1.1.2.1.3.1s.3.1.4.1c.3 0 .5-.1.7-.2s.2-.3.2-.5c0-.1 0-.3-.1-.4 0-.1-.1-.2-.2-.3s-.2-.2-.3-.2c-.1-.1-.2-.2-.4-.2l-.4-.2c-.4-.2-.6-.5-.8-.7a1.69 1.69 0 0 1-.3-1c0-.2 0-.4.1-.6s.2-.3.4-.5c.2-.1.3-.2.5-.3s.4-.1.6-.1.4 0 .6.1c.2 0 .3.1.4.2s.2.1.3.2l.2.2-.2.9zm4.2-.4H119v3.2c0 .4.1.7.2.8s.3.2.5.2c.1 0 .3 0 .4-.1.1 0 .2-.1.2-.1l.1.8s-.1.1-.3.1c-.2.1-.4.1-.6.1-.5 0-.9-.1-1.1-.4s-.4-.7-.4-1.4v-3.3h-.7V54l.7-.1.1-1.6h.9v1.6h1.4l-.1.7zm4.6 1.1v.6.5H122c0 .7.2 1.2.4 1.5.3.3.6.5 1.1.5.2 0 .3 0 .5-.1.1 0 .3-.1.4-.1.1-.1.2-.1.2-.2l.1-.1.4.7-.2.2c-.1.1-.2.2-.3.2-.1.1-.3.1-.5.2s-.4.1-.7.1c-.4 0-.7-.1-1-.2s-.5-.3-.7-.6c-.2-.2-.4-.6-.5-1s-.2-.8-.2-1.4c0-.5.1-.9.2-1.3s.3-.7.5-.9.4-.4.7-.5.5-.2.8-.2c.5 0 1 .2 1.3.5s.4 1 .4 1.6zm-1.8-1.2c-.3 0-.6.1-.8.4s-.3.7-.4 1.2h2.1v-.2-.2c0-.4-.1-.7-.2-.9s-.4-.3-.7-.3zm5.6.2s-.1 0-.2-.1-.2 0-.3 0c-.3 0-.5.1-.7.2-.2.2-.3.3-.4.5v4.2h-1v-5.7h.9v.8h0c0-.1.1-.2.2-.3s.1-.2.2-.3.2-.1.3-.2c.1 0 .3-.1.5-.1h.3c.1 0 .1 0 .2.1v.9zm2 4.8h-1v-5.7h1v5.7zm-.5-7.1c-.2 0-.4-.1-.5-.2s-.2-.3-.2-.5.1-.4.2-.5.3-.2.5-.2.3.1.5.2c.1.1.2.3.2.5s-.1.4-.2.5c-.2.2-.3.2-.5.2zm5.9 7.1h-.9v-.6h0l-.2.2-.3.3a.76.76 0 0 1-.4.2c-.1 0-.4.1-.6.1-.3 0-.5 0-.7-.1s-.4-.2-.5-.4-.3-.4-.3-.6c-.1-.3-.1-.6-.1-1v-3.7h1v3.7c0 .5.1.8.2 1 .2.2.4.3.7.3s.5-.1.7-.2.3-.3.5-.4v-4.4h1v5.6zm4.5 0v-3.7c0-.5-.1-.8-.2-1s-.4-.3-.7-.3c-.2 0-.3 0-.4.1-.1 0-.2.1-.3.1-.1.1-.2.1-.2.2l-.2.2v4.4h-1v-5.7h.9v.6h0c0-.1.1-.1.2-.2l.3-.3a.76.76 0 0 1 .4-.2c.1 0 .3-.1.5-.1.7 0 1.1.3 1.4.8.1-.1.1-.2.2-.3s.2-.2.3-.2c.1-.1.3-.1.4-.2.2 0 .3-.1.5-.1 1.2 0 1.7.7 1.7 2v3.8h-1v-3.7c0-.5-.1-.8-.2-1-.2-.2-.4-.3-.7-.3s-.5.1-.7.2-.3.3-.4.4v.3.3 3.8h-.8zm-75 7.1h-1.2v4.9h-1v-4.9h-.7V66l.7-.1v-1.1c0-.3 0-.6.1-.8s.2-.4.3-.5.3-.2.5-.3.4-.1.6-.1.4 0 .5.1.2.1.3.1l-.2.8s-.1-.1-.2-.1-.2-.1-.3-.1c-.2 0-.4.1-.5.2s-.2.4-.2.8v1h1.3v.7zm5 4.9h-.9v-.6h0l-.2.2-.3.3a.76.76 0 0 1-.4.2c-.1 0-.4.1-.6.1-.3 0-.5 0-.7-.1s-.4-.2-.5-.4-.3-.4-.3-.6c-.1-.3-.1-.6-.1-1v-3.7h1v3.7c0 .5.1.8.2 1 .2.2.4.3.7.3s.5-.1.7-.2.3-.3.5-.4v-4.4h1v5.6zm-2.4-7.3c0 .2-.1.3-.2.4s-.2.2-.4.2-.3-.1-.4-.2a.76.76 0 0 1-.2-.4c0-.2.1-.3.2-.4s.2-.2.4-.2.3.1.4.2c.2 0 .2.2.2.4zm1.9 0c0 .2-.1.3-.2.4s-.2.2-.4.2-.3-.1-.4-.2a.76.76 0 0 1-.2-.4c0-.2.1-.3.2-.4s.2-.2.4-.2.3.1.4.2c.1 0 .2.2.2.4zm4.5 2.5s-.1 0-.2-.1h-.3c-.3 0-.5.1-.7.2-.2.2-.3.3-.4.5v4.2h-1v-5.7h.9v.8h0c0-.1.1-.2.2-.3s.1-.2.2-.3.2-.1.3-.2c.1 0 .3-.1.5-.1h.3c.1 0 .1 0 .2.1v.9zM86 63.3l-2 8.2h-.9l-1.2-5.2c-.1-.4-.2-.7-.2-1s-.1-.6-.1-.7h0c0 .2 0 .4-.1.7s-.1.6-.2 1L80 71.5h-.9l-2-8.2h1.1l1 5c.1.4.1.7.2 1.1.1.3.1.6.1.8h0c0-.2 0-.4.1-.8.1-.3.2-.7.2-1.1l1.2-5h1l1.2 5c.1.4.2.7.2 1.1.1.3.1.6.1.8h0c0-.2 0-.5.1-.8.1-.4.1-.7.2-1.1l1-5H86zm1.9 8.2h-1v-5.7h1v5.7zm-.5-7.1c-.2 0-.4-.1-.5-.2s-.2-.3-.2-.5.1-.4.2-.5.3-.2.5-.2.3.1.5.2.2.3.2.5-.1.4-.2.5-.3.2-.5.2zm4.4 2.3s-.1 0-.2-.1h-.3c-.3 0-.5.1-.7.2-.2.2-.3.3-.4.5v4.2h-1v-5.7h.9v.8h0c0-.1.1-.2.2-.3s.1-.2.2-.3.2-.1.3-.2c.1 0 .3-.1.5-.1h.3c.1 0 .1 0 .2.1v.9zm3.4-.1H94v3.2c0 .4.1.7.2.8s.3.2.5.2c.1 0 .3 0 .4-.1.1 0 .2-.1.2-.1l.1.8s-.1.1-.3.1c-.2.1-.4.1-.6.1-.5 0-.9-.1-1.1-.4-.3-.2-.4-.7-.4-1.3v-3.3h-.7V66l.7-.1.1-1.6h.9v1.6h1.4l-.2.7zm3.6.4l-.3-.3c-.2-.1-.4-.2-.7-.2s-.4.1-.6.2a.76.76 0 0 0-.2.4c0 .2.1.4.2.5s.3.3.6.4l.4.2c.4.2.7.5.9.7a1.69 1.69 0 0 1 .3 1c0 .5-.2.8-.5 1.1s-.8.5-1.4.5c-.2 0-.4 0-.6-.1-.2 0-.3-.1-.5-.2-.1-.1-.2-.1-.3-.2s-.2-.1-.2-.2l.5-.8.2.2.2.2c.1.1.2.1.3.1s.3.1.4.1c.3 0 .5-.1.7-.2s.2-.3.2-.5c0-.1 0-.3-.1-.4 0-.1-.1-.2-.2-.3s-.2-.2-.3-.2c-.1-.1-.2-.2-.4-.2l-.4-.2c-.4-.2-.6-.5-.8-.7a1.69 1.69 0 0 1-.3-1c0-.2 0-.4.1-.6s.2-.3.4-.5c.2-.1.3-.2.5-.3s.4-.1.6-.1.4 0 .6.1c.2 0 .3.1.4.2.4.3.5.3.5.4l.2.2-.4.7zm4.9-.1l-.1-.1c-.1 0-.1-.1-.2-.1s-.2-.1-.3-.1-.2-.1-.4-.1-.4 0-.6.1-.3.2-.5.4l-.3.6c-.1.3-.1.6-.1 1s0 .8.1 1.1.2.5.3.7.3.3.4.4c.2.1.4.1.6.1.3 0 .5-.1.7-.2s.3-.2.3-.2l.4.7-.2.2c-.1.1-.2.1-.3.2s-.3.1-.4.2c-.2 0-.4.1-.6.1-.3 0-.6-.1-.9-.2s-.5-.3-.7-.5-.4-.5-.5-.9-.2-.9-.2-1.4.1-1 .2-1.4.3-.7.6-.9c.2-.2.5-.4.8-.5s.6-.2.9-.2c.2 0 .4 0 .6.1.2 0 .3.1.4.1.1.1.2.1.3.2l.2.2-.5.4zm4.5 4.6v-3.7c0-.5-.1-.8-.2-1-.2-.2-.4-.3-.7-.3s-.5.1-.7.2-.3.3-.5.4v4.4h-1v-8.4l1-.1v3.4h0s.1-.1.1-.2c.1-.1.2-.2.3-.2.1-.1.3-.1.4-.2.2-.1.4-.1.6-.1.5 0 .9.2 1.2.5s.4.9.4 1.6v3.7h-.9zm2.1-1.4c0-.3.1-.6.2-.8s.3-.4.5-.5.5-.2.8-.3.6-.1.9-.1h.3v-.5c0-.5-.1-.8-.3-1s-.4-.3-.7-.3-.5.1-.7.2-.3.2-.5.3l-.4-.6.2-.2c.1-.1.2-.2.4-.2.1-.1.3-.1.5-.2.2 0 .4-.1.6-.1.6 0 1 .2 1.3.5s.5.8.5 1.6v2.6.7.5h-.9v-.6h0c0 .1-.1.2-.1.2-.1.1-.1.2-.2.2-.1.1-.2.1-.3.2s-.3.1-.5.1-.4 0-.6-.1-.3-.2-.5-.3c-.1-.1-.2-.3-.3-.5-.2-.4-.2-.6-.2-.8zm1.7.8c.1 0 .3 0 .4-.1.1 0 .2-.1.3-.1l.2-.2c.1-.1.1-.1.1-.2V69h-.3c-.5 0-.8.1-1 .2s-.4.4-.4.7.1.5.2.7a.55.55 0 0 0 .5.3zm5.8-4.3h-1.2v4.9h-1v-4.9h-.7V66l.7-.1v-1.1c0-.3 0-.6.1-.8s.2-.4.3-.5.3-.2.5-.3.4-.1.6-.1.4 0 .5.1.2.1.3.1l-.2.8s-.1-.1-.2-.1-.2-.1-.3-.1c-.2 0-.4.1-.5.2s-.2.4-.2.8v1h1.3v.7zm3.4 0H120v3.2c0 .4.1.7.2.8s.3.2.5.2c.1 0 .3 0 .4-.1.1 0 .2-.1.2-.1l.1.8s-.1.1-.3.1c-.2.1-.4.1-.6.1-.5 0-.9-.1-1.1-.4s-.4-.7-.4-1.4v-3.3h-.7V66l.7-.1.1-1.6h.9v1.6h1.4l-.2.7zm-54 16.9h-.9v-.6h0l-.2.2-.3.3a.76.76 0 0 1-.4.2c-.1 0-.4.1-.6.1-.3 0-.5 0-.7-.1s-.4-.2-.5-.4-.3-.4-.3-.6c-.1-.3-.1-.6-.1-1v-3.7h1v3.7c0 .5.1.8.2 1 .2.2.4.3.7.3s.5-.1.7-.2.3-.3.5-.4v-4.4h1v5.6zm4.6 0v-3.7c0-.5-.1-.8-.2-1-.2-.2-.4-.3-.7-.3s-.5.1-.7.2-.3.3-.5.4v4.4h-1v-5.7h.9v.6h0l.2-.2.3-.3c.1-.1.3-.2.5-.2s.4-.1.6-.1c.3 0 .5 0 .7.1s.4.2.5.4.3.4.3.6c.1.3.1.6.1 1v3.7h-1zm2.2-2.7c0-.6.1-1.1.2-1.5.2-.4.3-.7.6-.9.2-.2.5-.4.8-.5s.6-.1.9-.1h.5c.1 0 .2.1.3.1v-2.7l1-.1v8.5h-.9V83h0s-.1.1-.1.2-.2.2-.3.2c-.1.1-.2.2-.4.2-.2.1-.4.1-.6.1-.3 0-.5-.1-.8-.2-.2-.1-.5-.3-.6-.5-.2-.2-.3-.5-.4-.9-.2-.4-.2-.8-.2-1.3zm2.2 2c.2 0 .3 0 .4-.1.1 0 .2-.1.3-.1.1-.1.2-.1.2-.2s.1-.1.1-.2v-3.5c-.1-.1-.2-.1-.3-.1s-.3-.1-.4-.1c-.2 0-.4 0-.6.1s-.4.2-.5.4-.3.4-.3.7c-.1.3-.1.6-.1 1s0 .7.1 1 .2.5.3.6c.1.2.3.3.4.4s.3.1.4.1zm10.2-6.7h-2.9V79h2.7v.8h-2.7v2.9h3.2l-.1.9h-4.2v-8.2h4v.7zm4.6 7.4v-3.7c0-.5-.1-.8-.2-1-.2-.2-.4-.3-.7-.3s-.5.1-.7.2-.3.3-.5.4v4.4h-1v-5.7h.9v.6h0l.2-.2.3-.3c.1-.1.3-.2.5-.2s.4-.1.6-.1c.3 0 .5 0 .7.1s.4.2.5.4.3.4.3.6c.1.3.1.6.1 1v3.7h-1zm6.1-3.8v.6.5h-2.9c0 .7.2 1.2.4 1.5.3.3.6.5 1.1.5.2 0 .3 0 .5-.1.1 0 .3-.1.4-.1.1-.1.2-.1.2-.2l.1-.1.4.7-.2.2c-.1.1-.2.2-.3.2-.1.1-.3.1-.5.2s-.4.1-.7.1c-.4 0-.7-.1-1-.2s-.5-.3-.7-.6c-.2-.2-.4-.6-.5-1s-.2-.8-.2-1.4c0-.5.1-.9.2-1.3s.3-.7.5-.9.4-.4.7-.5.5-.2.8-.2c.5 0 1 .2 1.3.5.2.4.4 1 .4 1.6zm-1.8-1.2c-.3 0-.6.1-.8.4s-.3.7-.4 1.2h2.1v-.2-.2c0-.4-.1-.7-.2-.9-.2-.2-.4-.3-.7-.3zm5.6.2s-.1 0-.2-.1h-.3c-.3 0-.5.1-.7.2-.2.2-.3.3-.4.5v4.2h-1v-5.7h.9v.8h0c0-.1.1-.2.2-.3s.1-.2.2-.3.2-.1.3-.2c.1 0 .3-.1.5-.1h.3c.1 0 .1 0 .2.1v.9zm4.9-.1h-.7a1.69 1.69 0 0 1 .3 1c0 .3 0 .6-.1.8s-.2.4-.4.6-.4.3-.6.4-.5.1-.8.1h-.2-.2c-.1 0-.2.1-.3.2s-.2.2-.2.3 0 .2.1.3.2.1.4.1h.7c.3 0 .5 0 .7.1s.4.1.6.3c.2.1.3.3.4.5s.1.4.1.7-.1.6-.2.8-.3.5-.6.7c-.2.2-.5.3-.9.4-.3.1-.7.2-1.1.2-.6 0-1.1-.1-1.4-.4s-.5-.6-.5-1.1c0-.2 0-.4.1-.6s.2-.3.3-.4l.3-.3c.1-.1.2-.1.3-.2h0c-.2-.2-.4-.4-.4-.8 0-.2 0-.3.1-.4s.1-.2.2-.3.2-.1.2-.2c.1 0 .1-.1.2-.1h0c-.3-.1-.5-.3-.7-.6s-.3-.7-.3-1.1c0-.3.1-.6.2-.8s.2-.4.4-.6.4-.3.6-.4.5-.1.8-.1.5 0 .8.1h1.7l.1.8zm-2.6 4.8h-.4c-.1 0-.1.1-.2.1l-.2.2c-.1.1-.1.2-.1.3s-.1.2-.1.4c0 .6.3.9 1 .9.6 0 1-.1 1.3-.3s.4-.5.4-.8-.1-.5-.3-.6-.4-.2-.7-.2h-.7zm1.3-3.8c0-.4-.1-.7-.3-.9s-.4-.3-.7-.3-.5.1-.7.3-.3.5-.3.9.1.7.3.9.4.3.7.3.5-.1.7-.3.3-.5.3-.9zm3.4 3.9h-1v-5.7h1v5.7zm-.5-7.1c-.2 0-.4-.1-.5-.2s-.2-.3-.2-.5.1-.4.2-.5.3-.2.5-.2.3.1.5.2c.1.1.2.3.2.5s-.1.4-.2.5c-.1.2-.3.2-.5.2zm5.6 3.3v.6.5h-2.9c0 .7.2 1.2.4 1.5.3.3.6.5 1.1.5.2 0 .3 0 .5-.1.1 0 .3-.1.4-.1.1-.1.2-.1.2-.2l.1-.1.4.7-.2.2c-.1.1-.2.2-.3.2-.1.1-.3.1-.5.2s-.4.1-.7.1c-.4 0-.7-.1-1-.2s-.5-.3-.7-.6c-.2-.2-.4-.6-.5-1s-.2-.8-.2-1.4c0-.5.1-.9.2-1.3s.3-.7.5-.9.4-.4.7-.5.5-.2.8-.2c.5 0 1 .2 1.3.5.3.4.4 1 .4 1.6zm-1.8-1.2c-.3 0-.6.1-.8.4s-.3.7-.4 1.2h2.1v-.2-.2c0-.4-.1-.7-.2-.9s-.4-.3-.7-.3z"/><defs ><path id="B" d="M38.7 24.2h-1.3v3.9l.7.1c.1 0 .1.1.1.1 0 .1-.1.3-.1.3h-2.5v-.1c0-.2.1-.3.3-.3l.4-.1v-3.9h-.8v-.1c0-.2.1-.3.3-.4l.5-.1v-.1c0-1.7 1-2.5 1.9-2.5.5 0 .7.2.7.6 0 .3-.2.4-.3.5-.1-.1-.4-.3-.7-.3-.5 0-.6.3-.6.9v1h1.4v.5z"/><path id="C" d="M46.5 24.5h0c.3-.4.6-1 1.3-1 .5 0 .7.2.7.6 0 .2-.1.4-.2.5-.1 0-.3-.2-.7-.2-.6 0-.9.2-1.1.5v3.2l.8.1c.1 0 .1.1.1.1 0 .1-.1.3-.1.3h-2.5v-.1c0-.2.1-.3.3-.3l.4-.1v-3.9l-.7-.1V24c0-.2.1-.3.4-.3l1.4-.1-.1.9z"/><path id="D" d="M53.5 28.1l.8.1v.1c0 .2-.1.3-.4.3l-1.4.1V28h0c-.2.3-.7.7-1.5.7-1 0-2-.7-2-2.5 0-2 1.4-2.8 2.7-2.8.3 0 .6.1.7.1v-1.8l-.7-.1v-.1c0-.2.1-.3.4-.3l1.4-.1v7zm-1.1-3.6c-.2-.1-.4-.3-.9-.3-.9 0-1.5.6-1.5 2s.6 1.9 1.3 1.9c.6 0 .9-.3 1.1-.4v-3.2z"/><path id="E" d="M27.3 139.8c0 .4.2.5.3.5.2 0 .4-.1.4-.2.1.1.1.2.1.3s-.3.5-1 .5c-.5 0-.8-.2-.9-.7h0c-.1.2-.5.8-1.4.8-.8 0-1.4-.5-1.4-1.4 0-1.1 1.2-1.5 2.4-1.5h.3v-.5c0-1-.3-1.3-.9-1.3-.2 0-.5.1-.5.1a2.39 2.39 0 0 0-.2.9h-.2c-.4 0-.6-.2-.6-.5 0-.7.9-1.1 1.8-1.1 1.2 0 1.7.6 1.7 1.8v2.3zm-1.3-1.2c-.8 0-1.3.3-1.3.9a.68.68 0 0 0 .7.7c.4 0 .8-.3.9-.5v-1.2l-.3.1z"/><path id="F" d="M33.3 140.3l.8.1v.1c0 .2-.1.3-.4.3l-1.4.1v-.7h0c-.2.2-.6.8-1.6.8-1.1 0-1.6-.7-1.6-1.9v-2.7l-.7-.1v-.1c0-.2.1-.3.4-.3l1.4-.1v3.3c0 1 .5 1.2 1 1.2s.9-.2 1.1-.5v-3.3l-.7-.1v-.1c0-.2.1-.3.4-.3l1.4-.1v4.4z"/><path id="G" d="M64.5 140.3l.8.1v.1c0 .2-.1.3-.4.3l-1.4.1v-.7h0c-.2.3-.7.7-1.5.7-1 0-2-.7-2-2.5 0-2 1.4-2.8 2.7-2.8.3 0 .6.1.7.1v-1.8l-.7-.1v-.1c0-.2.1-.3.4-.3l1.4-.1v7zm-1.1-3.7c-.2-.1-.4-.3-.9-.3-.9 0-1.5.6-1.5 2s.6 1.9 1.3 1.9c.6 0 .9-.3 1.1-.4v-3.2z"/><path id="H" d="M83.4 138.4c0 1.3.6 1.9 1.5 1.9.7 0 1-.3 1.3-.5a.76.76 0 0 1 .2.4c0 .3-.7.9-1.9.9-1.3 0-2.3-.7-2.3-2.6 0-1.8 1.1-2.8 2.3-2.8s1.8.7 1.8 1.8c0 .3-.1.6-.1.9h-2.8zm1.9-.6c0-.1.1-.3.1-.5 0-.6-.2-1.1-.8-1.1s-1 .5-1.1 1.5h1.8z"/><path id="I" d="M89.7 136.5c-.1-.1-.4-.2-.7-.2s-.7.1-.7.6.5.7 1 1c.6.4 1.3.8 1.3 1.6 0 .9-.7 1.5-1.9 1.5a3.07 3.07 0 0 1-1.3-.3c0-.3-.1-.5-.1-.8 0-.4.1-.6.4-.6h.1l.2.9c.1.1.4.2.7.2.5 0 .8-.2.8-.6 0-.5-.5-.7-1-1-.6-.4-1.3-.8-1.3-1.7 0-.8.7-1.4 1.7-1.4.6 0 1 .2 1.2.4v.6c0 .4-.1.6-.5.6h-.1l.2-.8z"/><path id="J" d="M97.5 137.1h0c1 .2 1.7.8 1.7 1.7 0 1.2-1 2-2.9 2h-2.7v-.1c0-.2.1-.3.4-.4l.4-.1v-6.1l-.6-.1c-.1 0-.1-.1-.1-.1 0-.1.1-.2.1-.3h2.5c1.9 0 2.8.7 2.8 1.8-.1 1.1-.7 1.5-1.6 1.7zm-1.4-2.8h-.6v2.6h.6c1.2 0 1.7-.6 1.7-1.3 0-.9-.5-1.3-1.7-1.3zm.2 3.2h-.7v2.7h.6c1.2 0 1.8-.6 1.8-1.4 0-.7-.6-1.3-1.7-1.3z"/><path id="K" d="M115.5 136.4h0c.2-.3.7-.8 1.6-.8 1 0 1.6.6 1.6 1.8v2.8l.6.1c.1 0 .1.1.1.1 0 .1-.1.3-.1.3h-2.4v-.1c0-.2.1-.3.3-.3l.3-.1v-2.7c0-.9-.5-1.2-1-1.2-.7 0-1 .3-1.2.5v3.3l.6.1c.1 0 .1.1.1.1 0 .1-.1.3-.1.3h-2.4v-.1c0-.2.1-.3.3-.3l.4-.1v-6.4l-.7-.1v-.1c0-.2.1-.3.4-.3l1.4-.1v3.3z"/><path id="L" d="M30.6 150.4c0 1.3.6 1.9 1.5 1.9.7 0 1-.3 1.3-.5a.76.76 0 0 1 .2.4c0 .3-.7.9-1.9.9-1.3 0-2.3-.7-2.3-2.6s1.1-2.8 2.3-2.8 1.8.7 1.8 1.8c0 .3-.1.6-.1.9h-2.8zm1.9-.6c0-.1.1-.3.1-.5 0-.6-.2-1.1-.8-1.1s-1 .5-1.1 1.5h1.8z"/><path id="M" d="M49.5 150.4c0 1.3.6 1.9 1.5 1.9.7 0 1-.3 1.3-.5a.76.76 0 0 1 .2.4c0 .3-.7.9-1.9.9-1.3 0-2.3-.7-2.3-2.6s1.1-2.8 2.3-2.8 1.8.7 1.8 1.8c0 .3-.1.6-.1.9h-2.8zm1.8-.6c0-.1.1-.3.1-.5 0-.6-.2-1.1-.8-1.1s-1 .5-1.1 1.5h1.8z"/></defs></svg>