<svg width="24" height="25" viewBox="0 0 24 25" fill="none" xmlns="http://www.w3.org/2000/svg">
<rect width="24" height="24" transform="translate(0 0.504883)" fill="white"/>
<path d="M3.612 17.096C2.972 17.096 2.412 16.996 1.932 16.796C1.452 16.588 1.08 16.296 0.816 15.92C0.56 15.536 0.432 15.092 0.432 14.588V14.324C0.432 14.284 0.444 14.252 0.468 14.228C0.5 14.196 0.536 14.18 0.576 14.18H1.944C1.984 14.18 2.016 14.196 2.04 14.228C2.072 14.252 2.088 14.284 2.088 14.324V14.504C2.088 14.824 2.236 15.096 2.532 15.32C2.828 15.536 3.228 15.644 3.732 15.644C4.156 15.644 4.472 15.556 4.68 15.38C4.888 15.196 4.992 14.972 4.992 14.708C4.992 14.516 4.928 14.356 4.8 14.228C4.672 14.092 4.496 13.976 4.272 13.88C4.056 13.776 3.708 13.636 3.228 13.46C2.692 13.276 2.236 13.088 1.86 12.896C1.492 12.704 1.18 12.444 0.924 12.116C0.676 11.78 0.552 11.368 0.552 10.88C0.552 10.4 0.676 9.98 0.924 9.62C1.172 9.26 1.516 8.984 1.956 8.792C2.396 8.6 2.904 8.504 3.48 8.504C4.088 8.504 4.628 8.612 5.1 8.828C5.58 9.044 5.952 9.348 6.216 9.74C6.488 10.124 6.624 10.572 6.624 11.084V11.264C6.624 11.304 6.608 11.34 6.576 11.372C6.552 11.396 6.52 11.408 6.48 11.408H5.1C5.06 11.408 5.024 11.396 4.992 11.372C4.968 11.34 4.956 11.304 4.956 11.264V11.168C4.956 10.832 4.816 10.548 4.536 10.316C4.264 10.076 3.888 9.956 3.408 9.956C3.032 9.956 2.736 10.036 2.52 10.196C2.312 10.356 2.208 10.576 2.208 10.856C2.208 11.056 2.268 11.224 2.388 11.36C2.516 11.496 2.7 11.62 2.94 11.732C3.188 11.836 3.568 11.98 4.08 12.164C4.648 12.372 5.092 12.556 5.412 12.716C5.74 12.876 6.032 13.116 6.288 13.436C6.552 13.748 6.684 14.156 6.684 14.66C6.684 15.412 6.408 16.008 5.856 16.448C5.304 16.88 4.556 17.096 3.612 17.096Z" fill="#5303FE"/>
<line x1="6.55671e-08" y1="20.2402" x2="8" y2="20.2402" stroke="black" stroke-width="1.5"/>
<path d="M14.528 8.6C14.568 8.6 14.6 8.616 14.624 8.648C14.656 8.672 14.672 8.704 14.672 8.744V9.92C14.672 9.96 14.656 9.996 14.624 10.028C14.6 10.052 14.568 10.064 14.528 10.064H12.38C12.34 10.064 12.32 10.084 12.32 10.124V16.856C12.32 16.896 12.304 16.932 12.272 16.964C12.248 16.988 12.216 17 12.176 17H10.772C10.732 17 10.696 16.988 10.664 16.964C10.64 16.932 10.628 16.896 10.628 16.856V10.124C10.628 10.084 10.608 10.064 10.568 10.064H8.48C8.44 10.064 8.404 10.052 8.372 10.028C8.348 9.996 8.336 9.96 8.336 9.92V8.744C8.336 8.704 8.348 8.672 8.372 8.648C8.404 8.616 8.44 8.6 8.48 8.6H14.528ZM23.1915 9.908C23.1915 9.948 23.1755 9.984 23.1435 10.016C23.1195 10.04 23.0875 10.052 23.0475 10.052H19.1235C19.0835 10.052 19.0635 10.072 19.0635 10.112V11.972C19.0635 12.012 19.0835 12.032 19.1235 12.032H21.7035C21.7435 12.032 21.7755 12.048 21.7995 12.08C21.8315 12.104 21.8475 12.136 21.8475 12.176V13.34C21.8475 13.38 21.8315 13.416 21.7995 13.448C21.7755 13.472 21.7435 13.484 21.7035 13.484H19.1235C19.0835 13.484 19.0635 13.504 19.0635 13.544V16.856C19.0635 16.896 19.0475 16.932 19.0155 16.964C18.9915 16.988 18.9595 17 18.9195 17H17.5155C17.4755 17 17.4395 16.988 17.4075 16.964C17.3835 16.932 17.3715 16.896 17.3715 16.856V8.744C17.3715 8.704 17.3835 8.672 17.4075 8.648C17.4395 8.616 17.4755 8.6 17.5155 8.6H23.0475C23.0875 8.6 23.1195 8.616 23.1435 8.648C23.1755 8.672 23.1915 8.704 23.1915 8.744V9.908Z" fill="black"/>
</svg>
