<svg width="24" height="24" viewBox="0 0 24 24" fill="none" xmlns="http://www.w3.org/2000/svg">
<rect width="24" height="24" fill="#5303FE"/>
<path d="M11.612 16.096C10.972 16.096 10.412 15.996 9.932 15.796C9.452 15.588 9.08 15.296 8.816 14.92C8.56 14.536 8.432 14.092 8.432 13.588V13.324C8.432 13.284 8.444 13.252 8.468 13.228C8.5 13.196 8.536 13.18 8.576 13.18H9.944C9.984 13.18 10.016 13.196 10.04 13.228C10.072 13.252 10.088 13.284 10.088 13.324V13.504C10.088 13.824 10.236 14.096 10.532 14.32C10.828 14.536 11.228 14.644 11.732 14.644C12.156 14.644 12.472 14.556 12.68 14.38C12.888 14.196 12.992 13.972 12.992 13.708C12.992 13.516 12.928 13.356 12.8 13.228C12.672 13.092 12.496 12.976 12.272 12.88C12.056 12.776 11.708 12.636 11.228 12.46C10.692 12.276 10.236 12.088 9.86 11.896C9.492 11.704 9.18 11.444 8.924 11.116C8.676 10.78 8.552 10.368 8.552 9.88C8.552 9.4 8.676 8.98 8.924 8.62C9.172 8.26 9.516 7.984 9.956 7.792C10.396 7.6 10.904 7.504 11.48 7.504C12.088 7.504 12.628 7.612 13.1 7.828C13.58 8.044 13.952 8.348 14.216 8.74C14.488 9.124 14.624 9.572 14.624 10.084V10.264C14.624 10.304 14.608 10.34 14.576 10.372C14.552 10.396 14.52 10.408 14.48 10.408H13.1C13.06 10.408 13.024 10.396 12.992 10.372C12.968 10.34 12.956 10.304 12.956 10.264V10.168C12.956 9.832 12.816 9.548 12.536 9.316C12.264 9.076 11.888 8.956 11.408 8.956C11.032 8.956 10.736 9.036 10.52 9.196C10.312 9.356 10.208 9.576 10.208 9.856C10.208 10.056 10.268 10.224 10.388 10.36C10.516 10.496 10.7 10.62 10.94 10.732C11.188 10.836 11.568 10.98 12.08 11.164C12.648 11.372 13.092 11.556 13.412 11.716C13.74 11.876 14.032 12.116 14.288 12.436C14.552 12.748 14.684 13.156 14.684 13.66C14.684 14.412 14.408 15.008 13.856 15.448C13.304 15.88 12.556 16.096 11.612 16.096Z" fill="white"/>
<line x1="8" y1="19.2402" x2="16" y2="19.2402" stroke="white" stroke-width="1.5"/>
</svg>
