<svg xmlns="http://www.w3.org/2000/svg" width="1616.012" height="732" xmlns:v="https://vecta.io/nano"><path d="M797.322 243.165c-16.883 0-28.188-12.048-28.188-27.703s11.306-27.666 28.188-27.666c16.844 0 28.11 12.085 28.11 27.666.002 15.655-11.266 27.703-28.11 27.703zm0-44.995c-9.67 0-15.322 6.544-15.322 17.291 0 10.858 5.652 17.291 15.322 17.291 9.594 0 15.246-6.433 15.246-17.291 0-10.747-5.652-17.291-15.246-17.291zm63 26.29v18.109h-12.568v-54.18h19.113c15.246 0 21.791 7.697 21.791 17.7 0 10.821-6.805 18.37-21.791 18.37l-6.545.001h0zm0-9.482h6.545c6.545 0 9.223-3.272 9.223-8.888 0-4.945-2.899-8.292-9.223-8.292h-6.545v17.18zm86.129-26.588v9.668h-22.238v12.643h17.031v9.297h-17.031v12.903h22.238v9.668H911.57v-54.18l34.881.001h0zm37.192 1.934l25.732 32.538-.297-5.802v-28.67h11.082v54.18h-6.545c-1.935 0-3.162-.483-4.39-2.082L983.68 208.21l.263 5.317v29.042H972.86v-54.18h6.619c2.156.001 2.789.262 4.164 1.935zM784.529 310.818h2.008c1.859 0 3.199-.595 4.016-1.747l12.197-17.701c1.34-1.934 2.938-2.491 5.43-2.491h10.933l-16.062 21.902c-1.153 1.6-2.381 2.566-3.682 3.272 1.896.707 3.42 1.822 4.723 3.867l16.361 25.138h-11.23c-2.862 0-3.903-.818-4.907-2.306L792.041 321.9c-.893-1.376-2.119-1.896-4.463-1.896h-3.049v23.055h-12.568v-54.18h12.568v21.939zm70.586-20.006l25.731 32.538-.297-5.802v-28.67h11.082v54.18h-6.545c-1.934 0-3.162-.483-4.389-2.082l-25.547-32.277.262 5.317v29.042H844.33v-54.18h6.619c2.158 0 2.791.261 4.166 1.934zm88.66 52.841c-16.884 0-28.188-12.048-28.188-27.703s11.305-27.666 28.188-27.666c16.846 0 28.112 12.085 28.112 27.666.002 15.655-11.266 27.703-28.112 27.703zm0-44.994c-9.668 0-15.32 6.544-15.32 17.291 0 10.858 5.652 17.291 15.32 17.291 9.594 0 15.246-6.433 15.246-17.291 0-10.747-5.652-17.291-15.246-17.291zm41.879-9.781h10.56c2.193 0 3.719 1.078 4.164 2.715l7.438 28.261c.481 1.822 1.041 3.942 1.301 6.21.483-2.343 1.115-4.388 1.674-6.21l8.775-28.261c.446-1.376 2.008-2.715 4.092-2.715h3.717c2.195 0 3.607 1.041 4.166 2.715l8.701 28.261 1.637 5.913 1.264-5.913 7.438-28.261c.408-1.45 2.008-2.715 4.09-2.715h9.894l-16.734 54.18h-11.379l-10.189-33.579-1.078-3.681-1.078 3.681-10.338 33.579h-11.379l-16.736-54.18zm114.172 44.14h20.08v10.04h-32.65v-54.18h12.57v44.14h0zm81.666-44.14v9.668h-22.236v12.644h17.031v9.297h-17.031v12.903h22.236v9.668h-34.881v-54.18h34.881 0zm47.455 54.18H1207.9v-54.18h21.047c16.846 0 28.113 11.49 28.113 27.071.001 15.656-11.267 27.109-28.113 27.109zm0-44.512h-8.404v34.844h8.404c9.594 0 15.246-6.619 15.246-17.44 0-10.747-5.652-17.404-15.246-17.404zm84.42 33.803v-8.219h-5.355c-1.598 0-2.526-.93-2.526-2.23v-6.917h19.262v22.869c-5.541 4.054-11.898 5.801-20.75 5.801-15.84 0-27.666-11.825-27.666-27.703 0-16.176 11.156-27.666 28.633-27.666 9.074 0 15.806 3.123 20.154 7.288l-3.644 5.541c-.707 1.041-1.674 1.673-2.825 1.673-.744 0-1.525-.26-2.308-.743-3.979-2.38-6.768-3.384-11.824-3.384-9.37 0-15.319 6.916-15.319 17.291 0 11.453 6.692 18.035 15.766 18.035 3.457 0 6.023-.632 8.402-1.636zm71.701-43.471v9.668h-22.236v12.644h17.031v9.297h-17.031v12.903h22.236v9.668h-34.881v-54.18h34.881 0zM806.846 389.355v9.67h-22.239v13.724h18.521v9.706h-18.521v21.087h-12.646v-54.187h34.885 0zm82.338 27.077c0 3.916-.676 7.562-2.026 10.934s-3.254 6.304-5.707 8.796-5.412 4.442-8.871 5.856-7.295 2.119-11.51 2.119-8.06-.706-11.529-2.119-6.44-3.365-8.906-5.856-4.377-5.424-5.728-8.796-2.025-7.018-2.025-10.934.674-7.562 2.025-10.936 3.26-6.297 5.728-8.775 5.437-4.427 8.906-5.84 7.314-2.119 11.529-2.119 8.051.713 11.51 2.139 6.416 3.379 8.871 5.856 4.355 5.405 5.707 8.776 2.026 7.005 2.026 10.899zm-12.868 0c0-2.679-.349-5.09-1.041-7.233s-1.693-3.962-2.994-5.448-2.896-2.628-4.779-3.422-4.029-1.189-6.434-1.189c-2.431 0-4.595.397-6.49 1.189s-3.496 1.934-4.797 3.422-2.302 3.305-2.994 5.448-1.041 4.556-1.041 7.233c0 2.701.346 5.125 1.041 7.271s1.69 3.961 2.994 5.448 2.899 2.622 4.797 3.402 4.061 1.171 6.49 1.171c2.403 0 4.549-.391 6.434-1.171s3.476-1.916 4.779-3.402 2.299-3.305 2.994-5.448 1.041-4.57 1.041-7.271zm63.743 17.18c1.686 0 3.193-.279 4.52-.837a9.16 9.16 0 0 0 3.365-2.398c.918-1.042 1.616-2.312 2.102-3.812s.725-3.204.725-5.113v-32.097h12.57v32.097c0 3.322-.539 6.372-1.617 9.147s-2.623 5.17-4.631 7.179-4.451 3.569-7.326 4.687-6.11 1.673-9.707 1.673c-3.618 0-6.866-.558-9.743-1.673s-5.316-2.678-7.326-4.687-3.545-4.4-4.611-7.179-1.6-5.825-1.6-9.147v-32.097h12.569v32.06c0 1.909.242 3.613.728 5.113s1.184 2.776 2.102 3.831 2.039 1.858 3.365 2.417 2.829.836 4.515.836zm61.773-44.18c.373.049.707.143 1.004.277s.582.329.856.577.582.582.93 1.004l25.736 32.541-.224-3.031-.076-2.771v-28.674h11.084v54.186h-6.545c-.969 0-1.785-.148-2.455-.446s-1.313-.843-1.934-1.637l-25.551-32.28.186 2.77.076 2.548v29.046h-11.084v-54.186h6.621c.546-.001 1.005.025 1.376.076zm119.715 27c0 3.916-.676 7.529-2.027 10.841s-3.254 6.174-5.709 8.591-5.409 4.302-8.868 5.651-7.296 2.027-11.511 2.027h-21.051v-54.187h21.051c4.215 0 8.052.684 11.511 2.047s6.416 3.248 8.868 5.652 4.357 5.262 5.709 8.572 2.027 6.912 2.027 10.806zm-12.867 0c0-2.679-.348-5.097-1.043-7.252s-1.69-3.986-2.991-5.486-2.896-2.652-4.779-3.459-4.029-1.209-6.435-1.209h-8.405v34.848h8.405c2.404 0 4.55-.402 6.435-1.208s3.477-1.958 4.779-3.459 2.299-3.328 2.991-5.485 1.043-4.589 1.043-7.29zm91.634 27.11h-9.744c-1.09 0-1.988-.254-2.695-.763a3.93 3.93 0 0 1-1.469-1.952l-3.199-9.446h-20.604l-3.197 9.446c-.248.694-.732 1.32-1.451 1.878s-1.6.837-2.641.837h-9.818l20.977-54.187h12.867l20.974 54.187zm-34.808-20.715h14.801l-4.983-14.839-1.134-3.328-1.282-4.146-1.229 4.202-1.188 3.347-4.985 14.764zm100.857-33.472v9.968h-15.246v44.219h-12.57v-44.219h-15.248v-9.968h43.064zm41.283 54.187H1295v-54.187h12.646v54.187zm85.834-27.11c0 3.916-.677 7.562-2.027 10.934s-3.254 6.304-5.709 8.796-5.41 4.442-8.869 5.856-7.297 2.119-11.512 2.119-8.058-.706-11.527-2.119-6.441-3.365-8.908-5.856-4.375-5.424-5.727-8.796-2.027-7.018-2.027-10.934.676-7.562 2.027-10.936 3.26-6.297 5.727-8.775 5.437-4.427 8.908-5.84 7.312-2.119 11.527-2.119 8.053.713 11.512 2.139 6.414 3.379 8.869 5.856 4.357 5.405 5.709 8.776 2.027 7.005 2.027 10.899zm-12.869 0c0-2.679-.349-5.09-1.041-7.233s-1.691-3.962-2.994-5.448-2.896-2.628-4.777-3.422-4.029-1.189-6.436-1.189c-2.431 0-4.593.397-6.488 1.189s-3.496 1.934-4.799 3.422-2.299 3.305-2.992 5.448-1.043 4.556-1.043 7.233c0 2.701.348 5.125 1.043 7.271s1.691 3.961 2.992 5.448 2.901 2.622 4.799 3.402 4.059 1.171 6.488 1.171c2.405 0 4.551-.391 6.436-1.171s3.478-1.916 4.777-3.402 2.301-3.305 2.994-5.448 1.041-4.57 1.041-7.271zm49.203-27a3.61 3.61 0 0 1 1.004.277c.297.137.582.329.854.577s.582.582.931 1.004l25.733 32.541-.223-3.031-.074-2.771v-28.674h11.082v54.186h-6.545c-.967 0-1.785-.148-2.455-.446s-1.313-.843-1.934-1.637l-25.55-32.28.187 2.77.074 2.548v29.046h-11.082v-54.186h6.619c.547-.001 1.006.025 1.379.076zM515.149 201.239l-16.832-12.575L602.42 49.321l16.832 12.575zm-31.643-21.748l-18.811-9.371 37.361-74.999 18.811 9.371zm-35.043-15.739l-20.185-5.862 36.74-126.503 20.185 5.862zm-37.289-9.217l-20.905-2.163 8.611-83.315 20.912 2.165zm-59.298-.809l-7.171-93.58 20.953-1.602 7.172 93.578zm-37.529 8.185l-16.269-62.14 20.329-5.323 16.258 62.141zm-35.475 14.758l-18.167-39.037 19.042-8.862 18.167 39.037zm-32.259 20.859l-9.738-13.794 17.165-12.122 9.731 13.795zm-28.02 26.283l-49.28-48.381 14.718-14.999 49.282 48.379z"/><path d="M195.712 254.668l-76.251-52.288 11.809-17.378 76.251 52.288zm-17 34.445l-48.018-21.282 8.516-19.208 48.021 21.284zM25.915 291.59l142.23 34.459 4.944-20.422-142.224-34.455zm138.431 72.68l-106.108-6.175 1.221-20.982 106.108 6.175zm-99.792 50.818l-2.54-20.856 102.854-12.526 2.54 20.856zm89.717 31.751l-6.228-20.068 23.008-7.14 6.228 20.068zm-38 67.879l-9.708-18.637 77.309-40.272 9.708 18.637zm25.346 48.641l-12.879-16.6 74.251-57.608 12.879 16.6zm40.617 37.397l-15.637-14.03 61.172-68.18 15.637 14.03zm70.83-10.706l-17.897-11.017 22.167-36.012 17.897 11.017zm27.419 56.114l-19.572-7.645 29.944-76.688 19.572 7.646zm52.841 6.38l-20.623-4.026 14.476-74.155 20.623 4.026zm52.132-19.518l-21.011-.281.698-52.543 21.01.275zm34.905 46.351l-16.814-100.212 20.726-3.48 16.811 100.211zm41.628-50.314l-20.803-57.751 19.763-7.119 20.803 57.751zm14.753-72.231l76.211 129.983 18.184-10.542-76.216-129.976zm44.459-8.206l-11.614-11.921 15.184-14.529 11.619 11.919zm68.604 4.505l-52.39-42.928 13.322-16.254 52.391 42.926zm24.261-43.884l-53.506-29.716 10.196-18.37 53.513 29.712zm-10.376-55.248l-25.849-8.78 6.758-19.899 25.841 8.778zm66.004-33.542l-80.983-12.068 3.097-20.783 80.983 12.068zm-76.838-50.277l-.668-21.003 51.964-1.642.67 21.008zm-2.791-38.328l-4.405-20.547 64.256-13.774 4.405 20.547zm-9.516-37.205l-8.003-19.426L614 258.147l7.997 19.422zm-16.047-34.901l-11.339-17.693 109.724-70.364 11.345 17.692zm-22.018-31.484l-14.318-15.372 16.577-15.441 14.311 15.375zM362.427 350.361c-1.681-1.936-3.736-3.424-6.168-4.465s-5.201-1.56-8.305-1.56h-10.848v44.977h10.848c3.103 0 5.872-.521 8.305-1.561s4.487-2.527 6.168-4.464 2.968-4.296 3.863-7.08 1.345-5.92 1.345-9.408c0-3.456-.449-6.576-1.345-9.359s-2.184-5.143-3.863-7.08zm148.269 20.168l-.472-15.396-46.673 1.427 45.668-9.732-3.211-15.065-45.69 9.737 43.215-17.734-5.849-14.25-43.175 17.718 39.321-25.136-8.297-12.979-39.358 25.159 34.235-31.78-10.479-11.289-34.23 31.776 28.008-37.371-12.326-9.236-28.007 37.371 20.887-41.768-13.774-6.889-20.89 41.772 13.101-44.829-14.785-4.32-13.1 44.831 4.891-46.444-15.318-1.613-5.062 48.084-3.774-48.202-15.354 1.203 3.644 46.543-11.888-45.143-14.896 3.922 11.895 45.167-19.763-42.318-13.955 6.518 19.759 42.309L308 254.467l-12.568 8.902 27.005 38.123-33.374-32.689-10.777 11.004 33.353 32.669-38.648-26.196-8.643 12.75 38.665 26.206-42.721-18.884-6.227 14.088 42.719 18.883-45.405-10.954-3.611 14.973 45.392 10.951-46.613-2.676-.883 15.377 46.635 2.677-46.363 5.688 1.875 15.287 46.373-5.689-44.612 13.874 4.574 14.707 44.587-13.866-41.396 21.602 7.125 13.655 41.397-21.602-36.878 28.642 9.447 12.164 36.881-28.645-31.178 34.767 11.467 10.283 31.17-34.76-24.47 39.766 13.117 8.072 24.482-39.785-16.987 43.512 14.348 5.603 16.987-43.514-8.95 45.846 15.117 2.95 8.946-45.825-.622 46.688 15.399.205.623-46.72 7.725 46.082 15.19-2.547-7.718-46.046 15.809 43.927 14.492-5.217-15.814-43.942 23.402 40.415 13.33-7.719-23.396-40.403 30.23 35.583 11.738-9.973-30.24-35.595 36.102 29.62 9.77-11.907-36.125-29.641 40.836 22.72 7.488-13.459-40.798-22.698 44.191 15.053 4.968-14.58-44.216-15.061 46.195 6.928 2.285-15.232-46.21-6.931 46.704-1.424zm-129.07 10.264c-1.744 4.271-4.199 7.968-7.367 11.088s-6.983 5.553-11.448 7.296-9.416 2.616-14.855 2.616h-27.168v-69.936h27.168c5.439 0 10.393.88 14.855 2.64s8.28 4.192 11.448 7.296 5.623 6.792 7.367 11.064 2.616 8.92 2.616 13.943c0 5.057-.872 9.721-2.616 13.993zm55.416-36.456h-28.704v16.32h21.984v12h-21.984v16.655h28.704v12.479h-45.024v-69.936h45.024v12.482zM816.795 505.15c0 3.972-.629 7.585-1.887 10.842s-3.035 6.043-5.328 8.361-5.045 4.113-8.252 5.384-6.758 1.905-10.655 1.905h-19.832v-53.021h19.832c3.897 0 7.449.636 10.655 1.906s5.957 3.07 8.252 5.402 4.07 5.124 5.328 8.38 1.887 6.871 1.887 10.841zm-7.363 0c0-3.256-.443-6.166-1.332-8.732s-2.146-4.735-3.773-6.512-3.602-3.132-5.92-4.07-4.896-1.405-7.733-1.405h-12.617v41.403h12.617c2.837 0 5.414-.469 7.733-1.406s4.291-2.287 5.92-4.052 2.885-3.928 3.773-6.493 1.332-5.477 1.332-8.733zm71.705-26.529v5.847H855.68v17.612h20.609v5.623H855.68v18.094h25.457v5.846h-32.672v-53.021h32.672zm52.836 47.323c2.195 0 4.156-.37 5.883-1.11s3.188-1.775 4.385-3.107 2.109-2.923 2.738-4.773.943-3.885.943-6.104v-32.228h7.141v32.228c0 3.059-.488 5.896-1.461 8.51s-2.369 4.878-4.182 6.79-4.027 3.41-6.641 4.495-5.551 1.628-8.807 1.628-6.191-.543-8.807-1.628-4.834-2.583-6.66-4.495-3.225-4.175-4.199-6.79-1.461-5.451-1.461-8.51v-32.228h7.141v32.19c0 2.22.314 4.255.943 6.104s1.541 3.441 2.738 4.773 2.664 2.375 4.402 3.127 3.708 1.128 5.904 1.128zm91.425-47.323v6.031h-17.131v46.99h-7.178v-46.99h-17.205v-6.031h41.514zm56.612 8.289c-.223.369-.457.646-.703.832s-.568.277-.963.277c-.42 0-.906-.209-1.461-.629s-1.258-.882-2.109-1.388-1.875-.968-3.07-1.388-2.646-.629-4.348-.629c-1.604 0-3.023.217-4.256.648s-2.264 1.017-3.09 1.757-1.449 1.609-1.867 2.608-.629 2.078-.629 3.238c0 1.479.363 2.707 1.09 3.681s1.689 1.808 2.887 2.497 2.553 1.289 4.07 1.795l4.662 1.572 4.662 1.832c1.516.679 2.873 1.535 4.07 2.571s2.158 2.307 2.885 3.812 1.092 3.354 1.092 5.549c0 2.319-.395 4.496-1.184 6.531s-1.943 3.805-3.459 5.31-3.381 2.688-5.588 3.552-4.717 1.295-7.529 1.295c-3.43 0-6.555-.623-9.379-1.868s-5.236-2.929-7.234-5.051l2.072-3.403c.197-.271.438-.5.721-.686a1.68 1.68 0 0 1 .943-.277c.52 0 1.111.277 1.777.833s1.498 1.165 2.498 1.831 2.207 1.277 3.625 1.832 3.15.832 5.199.832c1.701 0 3.219-.234 4.551-.703s2.461-1.128 3.385-1.979 1.635-1.869 2.127-3.053.74-2.504.74-3.959c0-1.604-.363-2.917-1.092-3.941s-1.684-1.881-2.867-2.57-2.533-1.277-4.051-1.758l-4.662-1.48c-1.592-.505-3.145-1.092-4.662-1.758a15.14 15.14 0 0 1-4.051-2.59c-1.186-1.061-2.141-2.387-2.867-3.977s-1.092-3.559-1.092-5.902a14.02 14.02 0 0 1 1.092-5.439c.727-1.75 1.781-3.305 3.162-4.662s3.09-2.441 5.125-3.256 4.371-1.221 7.012-1.221c2.959 0 5.66.469 8.104 1.406s4.574 2.294 6.4 4.07l-1.738 3.406zm71.334 33.78c.395 0 .752.161 1.074.481l2.811 3.07c-2.17 2.517-4.803 4.478-7.898 5.883s-6.826 2.109-11.193 2.109c-3.822 0-7.289-.66-10.396-1.979s-5.76-3.169-7.955-5.55-3.898-5.235-5.105-8.565-1.812-6.993-1.812-10.989.646-7.658 1.941-10.988 3.113-6.191 5.457-8.584 5.15-4.249 8.418-5.568 6.875-1.98 10.822-1.98c3.898 0 7.258.605 10.084 1.813s5.332 2.849 7.529 4.921l-2.332 3.293c-.172.246-.369.45-.592.61s-.543.241-.963.241c-.32 0-.66-.117-1.016-.352a44.71 44.71 0 0 1-1.277-.87c-.494-.345-1.072-.715-1.738-1.11s-1.457-.764-2.369-1.109-1.973-.635-3.182-.869-2.604-.352-4.182-.352c-2.836 0-5.432.486-7.787 1.461s-4.385 2.362-6.088 4.162-3.027 3.996-3.977 6.586-1.426 5.489-1.426 8.695c0 3.306.477 6.254 1.426 8.844s2.244 4.779 3.885 6.566a16.39 16.39 0 0 0 5.828 4.089c2.246.937 4.662 1.406 7.252 1.406 1.578 0 2.996-.093 4.254-.277a17.43 17.43 0 0 0 3.496-.87 14.84 14.84 0 0 0 2.998-1.498c.924-.604 1.855-1.326 2.793-2.164.419-.371.825-.556 1.22-.556zm78.218 10.953h-7.215v-24.124h-28.564v24.124h-7.215v-53.021h7.215v23.644h28.564v-23.644h7.215v53.021zm42.032-6.032h22.941v6.031h-30.119v-53.021h7.178v46.99zm96.385 6.032h-5.549c-.643 0-1.16-.16-1.555-.48s-.691-.729-.889-1.222l-4.957-12.802h-23.791l-4.959 12.802c-.172.444-.469.839-.887 1.185s-.939.518-1.555.518h-5.551l21.201-53.021h7.289l21.203 53.02zm-34.743-19.684h19.795l-8.326-21.571c-.543-1.332-1.072-2.997-1.59-4.995l-.797 2.793-.758 2.239-8.324 21.534zm68.467-33.097c.309.161.66.487 1.055.98l30.711 39.96-.148-1.869-.037-1.757V478.62h6.289v53.021h-3.625c-.568 0-1.043-.098-1.426-.296s-.758-.53-1.127-.999l-30.674-39.923.111 1.813.037 1.627v37.777h-6.291v-53.021h3.701c.641.002 1.116.083 1.424.243zm118.678 26.288c0 3.972-.629 7.585-1.887 10.842s-3.033 6.043-5.328 8.361-5.045 4.113-8.252 5.384-6.758 1.905-10.654 1.905h-19.832v-53.021h19.832c3.896 0 7.449.636 10.654 1.906s5.957 3.07 8.252 5.402 4.07 5.124 5.328 8.38 1.887 6.871 1.887 10.841zm-7.363 0c0-3.256-.443-6.166-1.332-8.732s-2.146-4.735-3.773-6.512-3.602-3.132-5.92-4.07-4.896-1.405-7.732-1.405h-12.617v41.403h12.617c2.836 0 5.414-.469 7.732-1.406s4.291-2.287 5.92-4.052 2.887-3.928 3.773-6.493 1.332-5.477 1.332-8.733z"/></svg>